{"glyphs":{"0":{"ha":833,"x_min":83,"x_max":750,"o":"m 83 500 q 180 889 83 728 q 416 1050 278 1050 q 652 889 555 1050 q 750 500 750 728 q 652 136 750 288 q 416 -16 555 -16 q 180 135 278 -16 q 83 500 83 286 l 83 500 m 167 500 q 240 182 167 313 q 416 50 313 50 q 593 182 519 50 q 667 500 667 313 q 594 842 667 701 q 416 983 521 983 q 240 842 313 983 q 167 500 167 700 l 167 500 z "},"1":{"ha":833,"x_min":141,"x_max":692,"o":"m 141 0 l 141 66 l 376 66 l 376 884 q 267 822 327 844 q 141 800 206 800 l 141 867 q 293 917 224 867 q 392 1050 362 967 l 458 1050 l 458 66 l 692 66 l 692 0 l 141 0 l 141 0 z "},"2":{"ha":833,"x_min":92,"x_max":742,"o":"m 92 0 l 92 66 q 177 275 92 167 q 408 467 262 382 q 579 617 517 530 q 642 792 642 704 q 573 940 642 879 q 408 1001 505 1001 q 243 927 312 1001 q 175 750 175 853 q 183 692 175 722 q 209 633 191 662 l 141 601 q 104 682 117 644 q 92 750 92 719 q 184 975 92 882 q 408 1067 277 1067 q 633 987 540 1067 q 726 792 726 906 q 640 578 726 688 q 408 384 555 468 q 237 236 300 320 q 175 66 175 152 l 742 66 l 742 0 l 92 0 l 92 0 z "},"3":{"ha":833,"x_min":83,"x_max":750,"o":"m 83 317 l 167 317 q 256 138 186 209 q 416 66 327 66 q 593 140 519 66 q 667 317 667 213 q 594 482 667 414 q 416 551 521 551 l 334 551 l 334 601 l 617 967 l 83 967 l 83 1034 l 684 1034 l 718 983 l 450 617 q 663 530 575 617 q 750 317 750 442 q 652 81 750 179 q 416 -16 555 -16 q 191 79 288 -16 q 83 317 95 175 l 83 317 z "},"4":{"ha":833,"x_min":83,"x_max":750,"o":"m 83 233 l 83 283 l 517 1034 l 583 1034 l 583 300 l 750 300 l 750 233 l 583 233 l 583 66 l 667 66 l 667 0 l 416 0 l 416 66 l 500 66 l 500 233 l 83 233 l 83 233 m 183 300 l 500 300 l 500 850 l 183 300 l 183 300 z "},"5":{"ha":833,"x_min":100,"x_max":734,"o":"m 100 201 l 167 233 q 261 100 197 151 q 400 50 326 50 q 576 134 503 50 q 650 334 650 217 q 576 534 650 450 q 400 617 503 617 q 278 585 339 617 q 167 492 217 552 l 100 517 l 183 1034 l 718 1034 l 718 967 l 250 967 l 201 617 q 300 679 250 658 q 400 700 351 700 q 636 593 538 700 q 734 334 734 486 q 636 86 734 189 q 400 -16 538 -16 q 218 43 300 -16 q 100 201 136 102 l 100 201 z "},"6":{"ha":833,"x_min":92,"x_max":742,"o":"m 92 533 q 197 898 92 746 q 450 1050 302 1050 q 626 991 545 1050 q 742 834 707 932 l 675 808 q 592 935 655 886 q 450 983 529 983 q 256 852 336 983 q 175 533 175 720 q 283 644 216 604 q 425 684 350 684 q 649 581 556 684 q 742 334 742 479 q 650 86 742 189 q 425 -16 557 -16 q 182 134 273 -16 q 92 533 92 283 l 92 533 m 175 434 q 248 163 175 275 q 425 50 321 50 q 590 134 521 50 q 659 334 659 217 q 591 534 659 450 q 425 617 522 617 q 291 568 358 617 q 175 434 224 518 l 175 434 z "},"7":{"ha":831,"x_min":111,"x_max":720,"o":"m 111 834 l 111 1034 l 678 1034 l 720 951 l 479 434 q 416 252 437 362 q 395 0 395 141 l 312 0 q 338 264 312 145 q 412 467 363 382 l 637 967 l 195 967 l 195 834 l 111 834 l 111 834 z "},"8":{"ha":833,"x_min":83,"x_max":750,"o":"m 83 283 q 133 447 83 373 q 267 551 183 521 q 170 644 206 586 q 133 766 133 703 q 216 966 133 883 q 416 1050 300 1050 q 616 967 533 1050 q 700 766 700 884 q 664 643 700 701 q 567 551 628 585 q 700 447 650 521 q 750 283 750 373 q 652 71 750 159 q 416 -16 555 -16 q 180 71 278 -16 q 83 283 83 159 l 83 283 m 167 283 q 240 119 167 187 q 416 50 313 50 q 593 119 519 50 q 667 283 667 187 q 594 448 667 380 q 416 517 521 517 q 240 448 313 517 q 167 283 167 380 l 167 283 m 217 766 q 275 636 217 689 q 416 583 334 583 q 558 637 499 583 q 617 766 617 690 q 559 920 617 856 q 416 983 500 983 q 275 920 334 983 q 217 766 217 857 l 217 766 z "},"9":{"ha":833,"x_min":92,"x_max":742,"o":"m 92 700 q 180 947 92 845 q 392 1050 267 1050 q 640 895 537 1050 q 742 517 742 739 q 634 140 742 296 q 376 -16 526 -16 q 205 43 283 -16 q 92 201 126 102 l 159 233 q 248 100 189 151 q 376 50 307 50 q 576 186 492 50 q 659 517 659 323 q 551 406 618 446 q 408 366 483 366 q 184 464 277 366 q 92 700 92 562 l 92 700 m 175 700 q 243 512 175 590 q 408 434 312 434 q 537 483 472 434 q 650 617 602 532 q 562 878 636 772 q 392 983 488 983 q 239 900 302 983 q 175 700 175 817 l 175 700 z "},"\u0000":{"ha":0,"x_min":0,"x_max":0,"o":""},"\f":{"ha":0,"x_min":0,"x_max":0,"o":""}," ":{"ha":416,"x_min":0,"x_max":0,"o":""},"!":{"ha":382,"x_min":125,"x_max":259,"o":"m 125 16 q 144 64 125 45 q 191 83 163 83 q 239 64 220 83 q 259 16 259 45 q 239 -31 259 -12 q 191 -50 220 -50 q 144 -31 163 -50 q 125 16 125 -12 l 125 16 m 125 784 q 144 855 125 826 q 191 884 163 884 q 239 854 220 884 q 259 784 259 825 q 234 458 259 675 q 209 133 209 241 l 175 133 q 150 458 175 241 q 125 784 125 675 l 125 784 z "},"\"":{"ha":566,"x_min":125,"x_max":442,"o":"m 125 834 l 125 1168 l 233 1168 l 233 834 l 125 834 l 125 834 m 342 834 l 342 1168 l 442 1168 l 442 834 l 342 834 l 342 834 z "},"#":{"ha":1312,"x_min":125,"x_max":1187,"o":"m 247 -34 l 296 191 l 125 191 l 138 292 l 319 292 l 422 742 l 174 742 l 187 842 l 445 842 l 514 1134 l 613 1134 l 545 842 l 879 842 l 947 1134 l 1047 1134 l 979 842 l 1187 842 l 1173 742 l 955 742 l 852 292 l 1139 292 l 1126 191 l 829 191 l 780 -34 l 681 -34 l 728 191 l 395 191 l 347 -34 l 247 -34 l 247 -34 m 522 742 l 419 292 l 751 292 l 856 742 l 522 742 l 522 742 z "},"$":{"ha":772,"x_min":125,"x_max":647,"o":"m 330 -77 l 330 7 q 230 34 283 7 q 125 114 176 61 l 179 187 q 246 118 208 146 q 330 79 285 90 l 330 427 q 180 533 236 471 q 125 655 125 595 q 185 789 125 734 q 330 845 245 845 l 330 903 l 400 903 l 400 845 q 506 816 457 840 q 589 751 555 792 l 545 692 q 484 746 524 727 q 400 765 445 765 l 400 495 q 581 363 514 442 q 647 203 647 283 q 574 64 647 122 q 400 5 502 5 l 400 -77 l 330 -77 l 330 -77 m 400 77 q 513 110 465 72 q 560 205 560 148 q 517 308 560 255 q 400 403 475 361 l 400 77 l 400 77 m 330 510 l 330 766 q 243 726 277 757 q 209 656 209 696 q 242 576 209 614 q 330 510 275 537 l 330 510 z "},"%":{"ha":1084,"x_min":125,"x_max":959,"o":"m 125 0 l 892 1001 l 959 1001 l 191 0 l 125 0 l 125 0 m 125 667 l 125 834 q 174 951 125 902 q 292 1001 224 1001 l 376 1001 q 493 951 444 1001 q 543 834 543 902 l 543 667 q 493 550 543 600 q 376 500 444 500 l 292 500 q 174 549 224 500 q 125 667 125 598 l 125 667 m 209 667 q 233 596 209 625 q 292 567 256 567 l 376 567 q 435 596 411 567 q 458 667 458 625 l 458 834 q 434 905 458 876 q 376 933 410 933 l 292 933 q 233 904 256 933 q 209 834 209 875 l 209 667 l 209 667 m 543 167 l 543 334 q 591 451 543 401 q 708 500 640 500 l 792 500 q 909 451 860 500 q 959 334 959 401 l 959 167 q 909 50 959 99 q 792 0 860 0 l 708 0 q 591 50 640 0 q 543 167 543 99 l 543 167 m 625 167 q 650 96 625 125 q 708 66 674 66 l 792 66 q 851 96 827 66 q 875 167 875 125 l 875 334 q 851 405 875 376 q 792 434 827 434 l 708 434 q 649 405 673 434 q 625 334 625 376 l 625 167 l 625 167 z "},"&":{"ha":1088,"x_min":125,"x_max":964,"o":"m 377 -1 q 199 62 273 -1 q 125 218 125 126 q 183 374 125 296 q 343 510 241 452 q 298 607 313 562 q 283 686 283 652 q 349 833 283 772 q 507 894 414 894 q 616 846 571 894 q 661 728 661 798 q 602 603 661 667 q 444 492 543 538 q 528 345 467 454 q 618 202 590 235 q 739 366 697 281 q 780 533 780 452 l 859 533 q 785 300 836 401 q 665 140 735 198 q 730 70 696 95 q 793 45 765 45 q 857 68 825 45 q 914 133 890 92 l 964 92 q 889 11 935 41 q 793 -19 844 -19 q 697 12 745 -19 q 612 96 650 43 q 504 24 566 50 q 377 -1 442 -1 l 377 -1 m 380 66 q 475 89 425 66 q 576 153 526 111 q 503 258 548 187 q 385 458 458 330 q 252 346 300 410 q 203 218 203 282 q 255 111 203 155 q 380 66 307 66 l 380 66 m 412 536 q 543 626 494 574 q 591 728 591 678 q 565 802 591 772 q 502 831 538 831 q 396 789 441 831 q 351 686 351 747 q 367 616 351 655 q 412 536 382 576 l 412 536 z "},"'":{"ha":358,"x_min":125,"x_max":233,"o":"m 125 834 l 125 1168 l 233 1168 l 233 834 l 125 834 l 125 834 z "},"(":{"ha":583,"x_min":125,"x_max":458,"o":"m 125 334 q 194 724 125 543 q 392 1034 263 906 l 458 1001 q 273 707 338 880 q 209 334 209 533 q 274 -40 209 133 q 458 -334 339 -213 l 392 -366 q 194 -56 263 -237 q 125 334 125 125 l 125 334 z "},")":{"ha":583,"x_min":125,"x_max":458,"o":"m 125 -334 q 323 -32 254 -205 q 392 334 392 141 q 323 699 392 525 q 125 1001 254 872 l 191 1034 q 389 724 320 905 q 458 334 458 543 q 389 -57 458 125 q 191 -366 320 -239 l 125 -334 l 125 -334 z "},"*":{"ha":903,"x_min":141,"x_max":762,"o":"m 370 1020 q 395 1072 370 1051 q 453 1093 420 1093 q 507 1070 483 1093 q 530 1020 530 1047 q 511 932 530 990 q 453 792 491 875 q 391 937 411 883 q 370 1020 370 990 l 370 1020 m 176 815 q 142 861 149 830 q 150 917 134 891 q 197 954 165 943 q 251 952 229 964 q 320 890 279 936 q 412 769 361 844 q 261 789 319 779 q 176 815 203 799 l 176 815 m 251 543 q 196 538 225 528 q 149 575 167 548 q 144 632 136 600 q 176 677 153 665 q 263 705 203 693 q 412 724 323 716 q 320 604 361 650 q 251 543 279 559 l 251 543 m 530 475 q 508 421 530 444 q 453 399 486 399 q 397 422 423 399 q 370 475 370 446 q 391 557 370 503 q 453 701 411 612 q 511 561 491 618 q 530 475 530 503 l 530 475 m 731 677 q 762 633 757 665 q 753 575 768 602 q 707 539 739 549 q 652 543 674 529 q 584 604 625 559 q 491 724 543 650 q 645 705 585 716 q 731 677 705 693 l 731 677 m 652 952 q 706 956 677 964 q 753 917 735 947 q 761 860 766 892 q 731 815 755 827 q 647 789 705 799 q 491 769 589 779 q 584 890 543 844 q 652 952 625 936 l 652 952 z "},"+":{"ha":833,"x_min":125,"x_max":708,"o":"m 125 300 l 125 366 l 376 366 l 376 583 l 458 583 l 458 366 l 708 366 l 708 300 l 458 300 l 458 83 l 376 83 l 376 300 l 125 300 l 125 300 z "},",":{"ha":382,"x_min":125,"x_max":259,"o":"m 125 50 q 144 98 125 79 q 191 117 163 117 q 239 83 220 117 q 259 0 259 49 q 221 -109 259 -61 q 125 -167 183 -157 l 125 -117 q 174 -67 156 -98 q 191 0 191 -37 q 144 15 163 0 q 125 50 125 30 l 125 50 z "},"-":{"ha":666,"x_min":125,"x_max":543,"o":"m 125 334 l 125 400 l 543 400 l 543 334 l 125 334 l 125 334 z "},".":{"ha":382,"x_min":125,"x_max":259,"o":"m 125 50 q 144 98 125 79 q 191 117 163 117 q 239 98 220 117 q 259 50 259 79 q 239 3 259 22 q 191 -16 220 -16 q 144 3 163 -16 q 125 50 125 22 l 125 50 z "},"/":{"ha":666,"x_min":125,"x_max":543,"o":"m 125 -167 l 458 1084 l 543 1084 l 209 -167 l 125 -167 l 125 -167 z "},":":{"ha":382,"x_min":125,"x_max":259,"o":"m 125 567 q 144 614 125 595 q 191 633 163 633 q 239 614 220 633 q 259 567 259 595 q 239 519 259 538 q 191 500 220 500 q 144 519 163 500 q 125 567 125 538 l 125 567 m 125 50 q 144 98 125 79 q 191 117 163 117 q 239 98 220 117 q 259 50 259 79 q 239 3 259 22 q 191 -16 220 -16 q 144 3 163 -16 q 125 50 125 22 l 125 50 z "},";":{"ha":382,"x_min":125,"x_max":259,"o":"m 125 567 q 144 614 125 595 q 191 633 163 633 q 239 614 220 633 q 259 567 259 595 q 239 519 259 538 q 191 500 220 500 q 144 519 163 500 q 125 567 125 538 l 125 567 m 125 50 q 144 98 125 79 q 191 117 163 117 q 239 83 220 117 q 259 0 259 49 q 221 -109 259 -61 q 125 -167 183 -157 l 125 -117 q 174 -67 156 -98 q 191 0 191 -37 q 144 15 163 0 q 125 50 125 30 l 125 50 z "},"<":{"ha":918,"x_min":125,"x_max":793,"o":"m 792 8 l 793 -100 l 125 231 l 125 355 l 792 705 l 792 589 l 225 297 l 792 8 l 792 8 z "},"=":{"ha":666,"x_min":125,"x_max":543,"o":"m 125 500 l 543 500 l 543 434 l 125 434 l 125 500 l 125 500 m 125 167 l 125 233 l 543 233 l 543 167 l 125 167 l 125 167 z "},">":{"ha":918,"x_min":125,"x_max":793,"o":"m 126 8 l 693 297 l 126 589 l 126 705 l 793 355 l 793 231 l 125 -100 l 126 8 l 126 8 z "},"?":{"ha":833,"x_min":125,"x_max":708,"o":"m 342 16 q 361 64 342 45 q 408 83 380 83 q 456 64 437 83 q 475 16 475 45 q 456 -31 475 -12 q 408 -50 437 -50 q 361 -31 380 -50 q 342 16 342 -12 l 342 16 m 125 617 q 208 829 125 742 q 408 917 292 917 q 621 829 533 917 q 708 617 708 742 q 667 460 708 529 q 559 366 627 392 q 480 298 510 347 q 450 183 450 248 l 450 133 l 366 133 l 366 183 q 401 333 366 269 q 492 416 435 397 q 589 493 552 438 q 625 617 625 548 q 562 782 625 713 q 408 850 499 850 q 267 782 326 850 q 209 617 209 713 l 125 617 l 125 617 z "},"@":{"ha":1404,"x_min":125,"x_max":1279,"o":"m 715 -312 q 297 -134 469 -312 q 125 297 125 45 q 300 732 125 552 q 724 911 475 911 q 1117 746 955 911 q 1279 345 1279 581 q 1204 96 1279 199 q 1023 -7 1128 -7 q 928 14 970 -7 q 875 66 887 34 q 798 15 841 33 q 708 -3 755 -3 q 515 83 594 -3 q 435 289 435 168 q 515 509 435 418 q 708 601 595 601 q 779 587 743 601 q 844 548 814 574 l 844 585 l 922 585 l 922 138 q 952 78 922 103 q 1024 53 982 53 q 1152 139 1099 53 q 1204 345 1204 225 q 1063 701 1204 553 q 724 849 922 849 q 359 687 511 849 q 206 297 206 525 q 354 -82 206 76 q 711 -240 502 -240 q 977 -183 856 -240 q 1168 -27 1097 -126 l 1215 -68 q 1003 -248 1135 -183 q 715 -312 871 -312 l 715 -312 m 711 75 q 782 92 747 75 q 844 141 817 110 l 844 472 q 793 517 827 500 q 718 533 758 533 q 573 460 632 533 q 514 285 514 388 q 571 136 514 198 q 711 75 628 75 l 711 75 z "},"[":{"ha":658,"x_min":125,"x_max":533,"o":"m 125 -247 l 125 890 l 533 890 l 533 823 l 216 823 l 216 -176 l 533 -176 l 533 -247 l 125 -247 l 125 -247 z "},"\\":{"ha":990,"x_min":125,"x_max":865,"o":"m 865 -201 l 792 -250 l 125 906 l 198 955 l 865 -201 l 865 -201 z "},"]":{"ha":658,"x_min":125,"x_max":533,"o":"m 125 -281 l 125 -210 l 452 -210 l 452 791 l 125 791 l 125 857 l 533 857 l 533 -281 l 125 -281 l 125 -281 z "},"^":{"ha":783,"x_min":125,"x_max":659,"o":"m 125 766 l 125 880 l 392 1168 l 659 867 l 659 766 l 392 1054 l 125 766 l 125 766 z "},"_":{"ha":1038,"x_min":125,"x_max":914,"o":"m 914 -183 l 914 -267 l 125 -267 l 125 -183 l 914 -183 l 914 -183 z "},"`":{"ha":510,"x_min":126,"x_max":385,"o":"m 385 825 l 336 800 l 137 1063 q 127 1114 122 1086 q 153 1157 132 1142 q 210 1161 178 1173 q 260 1114 243 1149 l 385 825 l 385 825 z "},"{":{"ha":750,"x_min":125,"x_max":625,"o":"m 125 308 q 242 349 193 308 q 292 446 292 391 l 292 609 q 389 821 292 734 q 625 909 487 909 l 625 865 q 449 790 522 865 q 376 609 376 715 l 376 471 q 326 338 376 393 q 209 283 277 283 q 326 229 277 283 q 376 96 376 174 l 376 -42 q 449 -224 376 -149 q 625 -298 522 -298 l 625 -342 q 389 -254 487 -342 q 292 -42 292 -167 l 292 121 q 243 218 292 178 q 125 259 194 259 l 125 308 l 125 308 z "},"|":{"ha":350,"x_min":125,"x_max":225,"o":"m 125 -100 l 125 766 l 225 766 l 225 -100 l 125 -100 l 125 -100 z "},"}":{"ha":750,"x_min":125,"x_max":625,"o":"m 625 308 l 625 259 q 508 218 557 259 q 458 121 458 176 l 458 -42 q 361 -254 458 -167 q 125 -342 263 -342 l 125 -298 q 302 -223 228 -298 q 376 -42 376 -148 l 376 96 q 425 229 376 174 q 543 283 473 283 q 425 338 475 283 q 376 471 376 393 l 376 609 q 302 791 376 716 q 125 865 228 865 l 125 909 q 361 821 263 909 q 458 609 458 734 l 458 446 q 508 349 458 389 q 625 308 557 308 l 625 308 z "},"~":{"ha":1074,"x_min":125,"x_max":951,"o":"m 125 366 q 235 452 171 422 q 366 483 298 483 q 533 441 425 483 q 700 400 642 400 q 823 420 768 400 q 909 475 879 441 l 951 416 q 844 342 910 368 q 700 317 779 317 q 533 359 642 317 q 366 400 425 400 q 261 376 311 400 q 175 308 212 351 l 125 366 l 125 366 z "},"¢":{"ha":753,"x_min":85,"x_max":704,"o":"m 85 376 q 171 648 85 545 q 399 750 256 750 q 452 747 427 750 q 496 741 477 745 l 566 907 l 640 907 l 564 711 q 658 616 623 670 q 699 503 693 562 l 613 503 q 590 573 610 537 q 537 642 570 609 l 320 80 q 362 70 342 73 q 399 66 382 66 q 555 118 494 66 q 624 256 616 170 l 704 256 q 610 68 694 138 q 399 -3 526 -3 q 346 1 372 -3 q 293 12 320 5 l 233 -141 l 159 -141 l 231 42 q 124 180 163 92 q 85 376 85 269 l 85 376 m 475 670 q 429 679 448 675 q 399 682 410 682 q 229 598 292 682 q 165 376 165 514 q 189 231 165 298 q 255 114 212 163 l 475 670 l 475 670 z "},"×":{"ha":722,"x_min":125,"x_max":597,"o":"m 183 99 l 125 157 l 302 334 l 125 510 l 183 570 l 361 393 l 537 570 l 597 510 l 420 334 l 597 157 l 537 99 l 361 275 l 183 99 l 183 99 z "},"÷":{"ha":800,"x_min":125,"x_max":675,"o":"m 334 117 q 353 164 334 145 q 400 183 372 183 q 448 164 429 183 q 467 117 467 145 q 448 69 467 88 q 400 50 429 50 q 353 69 372 50 q 334 117 334 88 l 334 117 m 125 300 l 125 366 l 675 366 l 675 300 l 125 300 l 125 300 m 334 551 q 353 598 334 579 q 400 617 372 617 q 448 598 429 617 q 467 551 467 579 q 448 503 467 522 q 400 483 429 483 q 353 503 372 483 q 334 551 334 522 l 334 551 z "},"।":{"ha":458,"x_min":250,"x_max":334,"o":"m 250 0 l 250 834 l 334 834 l 334 0 l 250 0 l 250 0 z "},"॥":{"ha":724,"x_min":250,"x_max":601,"o":"m 250 0 l 250 834 l 334 834 l 334 0 l 250 0 l 250 0 m 517 0 l 517 834 l 601 834 l 601 0 l 517 0 l 517 0 z "},"ஂ":{"ha":0,"x_min":-339,"x_max":-5,"o":"m -339 917 q -290 1034 -339 985 q -172 1084 -240 1084 q -55 1035 -104 1084 q -5 917 -5 986 q -54 800 -5 849 q -172 750 -103 750 q -290 800 -240 750 q -339 917 -339 849 l -339 917 m -271 917 q -242 846 -271 875 q -172 817 -213 817 q -101 846 -130 817 q -72 917 -72 875 q -101 988 -72 959 q -172 1017 -130 1017 q -243 988 -214 1017 q -271 917 -271 959 l -271 917 z "},"ஃ":{"ha":1089,"x_min":45,"x_max":1046,"o":"m 378 917 q 428 1034 378 985 q 545 1084 477 1084 q 663 1035 613 1084 q 712 917 712 986 q 663 800 712 849 q 545 750 613 750 q 428 800 477 750 q 378 917 378 849 l 378 917 m 445 917 q 474 846 445 875 q 545 817 503 817 q 616 846 587 817 q 646 917 646 875 q 616 988 646 959 q 545 1017 587 1017 q 474 988 503 1017 q 445 917 445 959 l 445 917 m 45 151 q 94 268 45 218 q 212 317 144 317 q 329 268 279 317 q 378 151 378 218 q 330 33 378 83 q 212 -16 281 -16 q 94 33 144 -16 q 45 151 45 81 l 45 151 m 111 151 q 140 79 111 109 q 212 50 170 50 q 283 79 254 50 q 312 151 312 109 q 283 221 312 193 q 212 250 254 250 q 140 220 170 250 q 111 151 111 191 l 111 151 m 712 151 q 761 268 712 218 q 879 317 810 317 q 996 268 947 317 q 1046 151 1046 218 q 996 33 1046 83 q 879 -16 947 -16 q 762 33 811 -16 q 712 151 712 81 l 712 151 m 779 151 q 808 79 779 109 q 879 50 837 50 q 950 79 921 50 q 979 151 979 109 q 950 221 979 193 q 879 250 921 250 q 808 220 837 250 q 779 151 779 191 l 779 151 z "},"அ":{"ha":1544,"x_min":35,"x_max":1419,"o":"m 35 151 q 69 221 35 193 q 152 250 103 250 l 1103 250 q 1115 298 1111 273 q 1119 350 1119 323 q 1050 522 1119 446 q 878 617 982 598 q 921 559 906 594 q 936 483 936 524 q 882 366 936 415 q 751 317 829 317 q 634 370 684 317 q 585 500 585 423 q 653 631 585 578 q 819 684 722 684 q 1090 586 978 684 q 1202 350 1202 488 q 1198 298 1202 323 q 1185 250 1194 274 l 1336 250 l 1336 667 l 1419 667 l 1419 -167 l 1336 -167 l 1336 183 l 1169 183 q 970 -35 1119 47 q 627 -117 822 -117 q 373 -83 498 -117 q 136 16 248 -49 q 62 79 90 43 q 35 151 35 115 l 35 151 m 652 483 q 684 412 652 441 q 761 384 715 384 q 837 413 806 384 q 868 483 868 442 q 837 566 868 532 q 761 601 806 601 q 684 566 716 601 q 652 483 652 532 l 652 483 m 118 151 q 127 130 118 142 q 152 100 136 117 q 345 -11 224 28 q 618 -50 467 -50 q 919 14 791 -50 q 1085 183 1047 79 l 152 183 q 128 173 138 183 q 118 151 118 163 l 118 151 z "},"ஆ":{"ha":1756,"x_min":35,"x_max":1736,"o":"m 35 167 q 64 226 35 202 q 136 250 94 250 l 1103 250 q 1115 298 1111 273 q 1119 350 1119 323 q 1050 522 1119 446 q 878 617 982 598 q 920 562 905 597 q 936 483 936 526 q 882 366 936 415 q 751 317 829 317 q 634 370 684 317 q 585 500 585 423 q 653 631 585 578 q 819 684 722 684 q 1090 586 978 684 q 1202 350 1202 488 q 1198 298 1202 323 q 1185 250 1194 274 l 1336 250 l 1336 667 l 1419 667 l 1419 100 q 1485 149 1446 132 q 1569 167 1525 167 q 1687 113 1637 167 q 1736 -16 1736 60 q 1575 -288 1736 -175 q 1185 -400 1413 -400 q 961 -353 1054 -400 q 868 -241 868 -307 q 927 -147 868 -186 q 1069 -109 986 -109 q 1168 -121 1120 -109 q 1260 -159 1217 -133 l 1210 -217 q 1139 -186 1175 -197 q 1069 -175 1103 -175 q 986 -193 1020 -175 q 952 -233 952 -210 q 1025 -304 952 -275 q 1202 -334 1099 -334 q 1520 -241 1389 -334 q 1652 -16 1652 -148 q 1623 60 1652 28 q 1552 92 1594 92 q 1474 60 1510 92 q 1419 -24 1438 28 l 1419 -217 l 1336 -217 l 1336 183 l 1169 183 q 970 -35 1119 47 q 627 -117 822 -117 q 373 -83 498 -117 q 136 16 248 -49 q 62 83 90 43 q 35 167 35 123 l 35 167 m 652 483 q 684 412 652 441 q 761 384 715 384 q 837 413 806 384 q 868 483 868 442 q 837 566 868 532 q 761 601 806 601 q 684 566 716 601 q 652 483 652 532 l 652 483 m 118 151 q 127 130 118 142 q 152 100 136 117 q 345 -11 224 28 q 618 -50 467 -50 q 919 14 791 -50 q 1085 183 1047 79 l 152 183 q 128 173 138 183 q 118 151 118 163 l 118 151 z "},"இ":{"ha":1351,"x_min":9,"x_max":1227,"o":"m 444 450 q 473 368 444 401 q 544 334 502 334 q 615 368 586 334 q 644 450 644 401 q 614 533 644 499 q 544 567 585 567 q 473 533 502 567 q 444 450 444 499 l 444 450 m 9 -233 q 64 -81 9 -153 q 210 34 118 -9 q 123 244 153 134 q 94 467 94 354 q 269 903 94 722 q 693 1084 445 1084 q 1071 918 914 1084 q 1227 517 1227 751 l 1227 0 l 1143 0 l 1143 517 q 1012 870 1143 723 q 693 1017 880 1017 q 328 857 480 1017 q 176 467 176 696 q 202 266 176 363 q 277 83 228 168 q 441 146 349 125 q 644 167 533 167 q 736 159 689 167 q 827 133 783 151 q 846 234 840 179 q 852 350 852 289 q 791 538 852 460 q 644 617 730 617 l 594 617 q 679 553 647 598 q 711 450 711 507 q 661 320 711 373 q 544 267 612 267 q 427 320 476 267 q 377 450 377 373 q 455 615 377 547 q 644 684 533 684 q 844 586 761 684 q 926 350 926 488 q 918 220 926 279 q 894 117 910 161 q 1063 -13 998 79 q 1127 -217 1127 -104 q 1059 -358 1127 -300 q 894 -416 990 -416 q 713 -387 800 -416 q 560 -300 627 -357 q 399 -387 494 -357 q 194 -416 304 -416 q 63 -363 117 -416 q 9 -233 9 -311 l 9 -233 m 94 -233 q 123 -316 94 -282 q 194 -350 152 -350 q 347 -327 273 -350 q 486 -259 422 -304 q 339 -138 400 -199 q 243 -16 278 -77 q 134 -110 175 -52 q 94 -233 94 -168 l 94 -233 m 327 16 q 424 -108 365 -50 q 560 -209 483 -165 q 707 -77 647 -148 q 793 66 766 -7 q 710 92 749 83 q 644 100 671 100 q 479 79 559 100 q 327 16 399 58 l 327 16 m 627 -259 q 773 -327 705 -304 q 894 -350 841 -350 q 1000 -311 955 -350 q 1044 -217 1044 -271 q 994 -54 1044 -127 q 860 50 944 20 q 766 -124 825 -45 q 627 -259 707 -203 l 627 -259 z "},"ஈ":{"ha":979,"x_min":125,"x_max":959,"o":"m 125 667 l 959 667 l 959 601 l 659 601 l 659 0 l 575 0 l 575 601 l 209 601 l 209 0 l 125 0 l 125 667 l 125 667 m 776 334 q 795 381 776 362 q 842 400 814 400 q 890 381 871 400 q 909 334 909 362 q 890 286 909 305 q 842 267 871 267 q 795 286 814 267 q 776 334 776 305 l 776 334 m 326 334 q 345 381 326 362 q 392 400 363 400 q 439 381 420 400 q 458 334 458 362 q 439 286 458 305 q 392 267 420 267 q 345 286 363 267 q 326 334 326 305 l 326 334 z "},"உ":{"ha":1260,"x_min":80,"x_max":1248,"o":"m 146 467 q 171 408 146 431 q 231 384 195 384 q 290 408 266 384 q 313 467 313 431 q 289 538 313 509 q 231 567 264 567 q 171 538 195 567 q 146 467 146 509 l 146 467 m 80 483 q 163 625 80 566 q 363 684 247 684 q 600 605 502 684 q 697 416 697 526 q 614 240 697 313 q 414 167 530 167 l 231 167 q 182 152 202 167 q 163 117 163 137 q 182 81 163 96 q 231 66 202 66 l 1248 66 l 1248 0 l 231 0 q 125 34 170 0 q 80 117 80 68 q 124 199 80 165 q 231 233 168 233 l 414 233 q 555 287 496 233 q 613 416 613 340 q 540 558 613 499 q 363 617 467 617 l 263 617 q 348 557 316 598 q 380 467 380 515 q 336 361 380 406 q 231 317 292 317 q 125 366 170 317 q 80 483 80 415 l 80 483 z "},"ஊ":{"ha":1748,"x_min":80,"x_max":1731,"o":"m 146 467 q 171 408 146 431 q 231 384 195 384 q 290 408 266 384 q 313 467 313 431 q 289 538 313 509 q 231 567 264 567 q 171 538 195 567 q 146 467 146 509 l 146 467 m 897 283 q 926 224 897 248 q 997 201 955 201 q 1057 224 1032 201 q 1081 283 1081 248 q 1057 342 1081 319 q 997 366 1032 366 q 926 342 955 366 q 897 283 897 319 l 897 283 m 80 483 q 163 625 80 566 q 363 684 247 684 q 600 605 502 684 q 697 416 697 526 q 614 240 697 313 q 414 167 530 167 l 231 167 q 182 152 202 167 q 163 117 163 137 q 182 81 163 96 q 231 66 202 66 l 1681 66 l 1681 0 l 231 0 q 125 34 170 0 q 80 117 80 68 q 124 199 80 165 q 231 233 168 233 l 414 233 q 555 287 496 233 q 613 416 613 340 q 540 558 613 499 q 363 617 467 617 l 263 617 q 348 557 316 598 q 380 467 380 515 q 336 361 380 406 q 231 317 292 317 q 125 366 170 317 q 80 483 80 415 l 80 483 m 798 400 q 876 600 798 517 q 1063 684 954 684 q 1165 662 1116 684 q 1248 601 1214 640 l 1248 667 l 1731 667 l 1731 601 l 1564 601 l 1564 133 l 1481 133 l 1481 601 l 1331 601 l 1331 133 l 1248 133 l 1248 400 q 1194 553 1248 490 q 1063 617 1141 617 q 922 553 981 617 q 864 400 864 490 l 864 350 q 932 412 898 391 q 997 434 967 434 q 1103 389 1058 434 q 1147 283 1147 345 q 1098 178 1147 222 q 981 133 1048 133 q 850 212 903 133 q 798 400 798 290 l 798 400 z "},"எ":{"ha":1084,"x_min":73,"x_max":1074,"o":"m 290 183 q 319 89 290 127 q 391 50 349 50 q 461 90 433 50 q 490 183 490 129 q 460 266 490 232 q 391 300 431 300 q 319 266 349 300 q 290 183 290 232 l 290 183 m 757 601 l 423 601 q 223 513 307 601 q 140 300 140 425 q 176 164 140 227 q 274 66 212 102 q 237 125 250 95 q 224 183 224 155 q 273 313 224 260 q 391 366 321 366 q 521 313 468 366 q 574 183 574 260 q 510 42 574 100 q 357 -16 446 -16 q 157 76 240 -16 q 73 300 73 168 q 176 559 73 452 q 423 667 278 667 l 1074 667 l 1074 601 l 841 601 l 841 0 l 757 0 l 757 601 l 757 601 z "},"ஏ":{"ha":1081,"x_min":72,"x_max":1072,"o":"m 289 183 q 318 89 289 127 q 388 50 347 50 q 459 90 430 50 q 488 183 488 129 q 459 266 488 232 q 388 300 430 300 q 317 266 346 300 q 289 183 289 232 l 289 183 m 755 601 l 422 601 q 222 513 305 601 q 138 300 138 425 q 174 172 138 235 q 271 66 209 110 q 234 125 247 95 q 221 183 221 155 q 271 313 221 260 q 388 366 320 366 q 519 313 465 366 q 572 183 572 260 q 515 39 572 94 q 363 -16 458 -16 q 157 76 243 -16 q 72 300 72 168 q 174 559 72 452 q 422 667 277 667 l 1072 667 l 1072 601 l 838 601 l 838 0 q 680 -96 753 -31 q 555 -250 606 -160 l 480 -201 q 604 -44 533 -109 q 755 50 675 20 l 755 601 l 755 601 z "},"ஐ":{"ha":1115,"x_min":56,"x_max":1047,"o":"m 56 -100 q 129 88 56 9 q 305 167 202 167 l 722 167 q 899 230 825 167 q 972 384 972 293 q 923 549 972 480 q 806 617 873 617 q 675 568 728 617 q 623 450 623 518 l 623 233 l 538 233 l 538 450 q 480 568 538 518 q 339 617 422 617 q 224 585 275 617 q 155 500 174 553 q 209 532 178 521 q 271 543 240 543 q 377 500 332 543 q 422 400 422 458 q 372 283 422 332 q 255 233 323 233 q 125 287 178 233 q 72 416 72 340 q 150 605 72 526 q 339 684 228 684 q 482 650 418 684 q 581 559 547 617 q 674 650 614 617 q 806 684 734 684 q 977 596 906 684 q 1047 384 1047 509 q 952 184 1047 267 q 722 100 857 100 l 305 100 q 188 42 237 100 q 138 -100 138 -16 q 192 -254 138 -190 q 321 -317 245 -317 q 475 -254 411 -317 q 538 -100 538 -190 l 538 16 l 623 16 l 623 -100 q 675 -254 623 -190 q 806 -317 728 -317 q 923 -273 873 -317 q 972 -167 972 -228 q 945 -78 972 -121 q 872 -8 918 -35 l 906 58 q 1008 -26 970 35 q 1047 -167 1047 -88 q 981 -320 1047 -256 q 822 -384 916 -384 q 670 -352 736 -384 q 572 -267 604 -320 q 474 -352 541 -320 q 321 -384 407 -384 q 134 -300 212 -384 q 56 -100 56 -217 l 56 -100 m 138 400 q 172 329 138 358 q 255 300 206 300 q 326 329 297 300 q 355 400 355 358 q 326 459 355 435 q 255 483 297 483 q 172 459 206 483 q 138 400 138 435 l 138 400 z "},"ஒ":{"ha":1164,"x_min":66,"x_max":1100,"o":"m 66 250 q 214 568 66 437 q 567 700 361 700 q 944 568 788 700 q 1100 250 1100 437 q 1042 109 1100 167 q 901 50 983 50 q 770 99 823 50 q 718 217 718 148 q 728 256 718 231 q 758 317 739 282 q 679 243 708 289 q 650 151 650 198 q 718 20 650 73 q 884 -34 787 -34 l 1067 -34 l 1067 -100 l 817 -100 q 748 -138 781 -100 q 700 -233 715 -175 q 608 -366 678 -315 q 450 -416 538 -416 q 297 -363 361 -416 q 233 -233 233 -311 q 277 -116 233 -165 q 384 -66 321 -66 l 384 -133 q 324 -162 349 -133 q 300 -233 300 -191 q 344 -316 300 -282 q 450 -350 388 -350 q 557 -317 510 -350 q 617 -233 604 -285 q 669 -127 633 -172 q 750 -66 704 -83 q 629 20 675 -39 q 583 151 583 80 q 662 315 583 247 q 850 384 741 384 q 802 302 819 346 q 784 217 784 259 q 818 146 784 175 q 901 117 852 117 q 983 156 949 117 q 1017 250 1017 195 q 886 521 1017 408 q 567 633 754 633 q 266 521 391 633 q 141 250 141 408 q 146 223 141 240 q 167 167 152 206 q 211 315 167 254 q 317 376 255 376 q 434 323 385 376 q 483 201 483 271 q 434 70 483 123 q 317 16 385 16 q 140 85 214 16 q 66 250 66 153 l 66 250 m 233 201 q 258 117 233 152 q 317 83 282 83 q 376 117 353 83 q 400 201 400 152 q 376 271 400 243 q 317 300 351 300 q 258 271 282 300 q 233 201 233 241 l 233 201 z "},"ஓ":{"ha":1165,"x_min":68,"x_max":1103,"o":"m 68 283 q 215 578 68 457 q 568 700 362 700 q 946 568 789 700 q 1103 250 1103 437 q 1044 109 1103 167 q 902 50 986 50 q 772 99 825 50 q 719 217 719 148 q 730 256 719 231 q 761 317 741 282 q 682 243 711 289 q 652 151 652 198 q 720 20 652 73 q 886 -34 788 -34 l 1069 -34 l 1069 -100 l 819 -100 q 751 -138 784 -100 q 703 -233 718 -175 q 620 -366 681 -315 q 486 -416 559 -416 q 309 -363 382 -416 q 235 -233 235 -311 q 279 -116 235 -165 q 385 -66 323 -66 q 479 -106 441 -66 q 518 -201 518 -145 q 484 -295 518 -256 q 401 -334 450 -334 q 446 -346 425 -342 q 486 -350 467 -350 q 568 -317 530 -350 q 618 -233 605 -285 q 670 -127 635 -172 q 751 -66 705 -83 q 631 20 677 -39 q 585 151 585 80 q 663 315 585 247 q 852 384 742 384 q 803 302 821 346 q 785 217 785 259 q 819 146 785 175 q 902 117 853 117 q 985 156 951 117 q 1019 250 1019 195 q 887 521 1019 408 q 568 633 755 633 q 262 531 388 633 q 136 283 136 429 q 140 231 136 256 q 152 183 144 206 q 201 319 152 263 q 319 376 250 376 q 436 323 387 376 q 486 201 486 271 q 436 70 486 123 q 319 16 387 16 q 142 95 216 16 q 68 283 68 174 l 68 283 m 235 201 q 259 117 235 152 q 319 83 283 83 q 378 117 354 83 q 401 201 401 152 q 378 271 401 243 q 319 300 354 300 q 259 271 283 300 q 235 201 235 241 l 235 201 m 302 -233 q 326 -269 302 -254 q 385 -283 350 -283 q 433 -259 414 -283 q 452 -201 452 -235 q 433 -153 452 -172 q 385 -133 414 -133 q 326 -162 350 -133 q 302 -233 302 -191 l 302 -233 z "},"ஔ":{"ha":2368,"x_min":66,"x_max":2359,"o":"m 66 250 q 214 568 66 437 q 567 700 361 700 q 944 568 788 700 q 1100 250 1100 437 q 1042 109 1100 167 q 901 50 983 50 q 770 99 823 50 q 718 217 718 148 q 728 256 718 231 q 758 317 739 282 q 679 243 708 289 q 650 151 650 198 q 718 20 650 73 q 884 -34 787 -34 l 1067 -34 l 1067 -100 l 817 -100 q 748 -138 781 -100 q 700 -233 715 -175 q 608 -366 678 -315 q 450 -416 538 -416 q 297 -363 361 -416 q 233 -233 233 -311 q 277 -116 233 -165 q 384 -66 321 -66 l 384 -133 q 324 -162 349 -133 q 300 -233 300 -191 q 344 -316 300 -282 q 450 -350 388 -350 q 557 -317 510 -350 q 617 -233 604 -285 q 669 -127 633 -172 q 750 -66 704 -83 q 629 20 675 -39 q 583 151 583 80 q 662 315 583 247 q 850 384 741 384 q 802 302 819 346 q 784 217 784 259 q 818 146 784 175 q 901 117 852 117 q 983 156 949 117 q 1017 250 1017 195 q 886 521 1017 408 q 567 633 754 633 q 266 521 391 633 q 141 250 141 408 q 146 223 141 240 q 167 167 152 206 q 211 315 167 254 q 317 376 255 376 q 434 323 385 376 q 483 201 483 271 q 434 70 483 123 q 317 16 385 16 q 140 85 214 16 q 66 250 66 153 l 66 250 m 233 201 q 258 117 233 152 q 317 83 282 83 q 376 117 353 83 q 400 201 400 152 q 376 271 400 243 q 317 300 351 300 q 258 271 282 300 q 233 201 233 241 l 233 201 m 1392 201 q 1421 106 1392 145 q 1492 66 1450 66 q 1563 106 1534 66 q 1592 201 1592 145 q 1563 283 1592 250 q 1492 317 1534 317 q 1421 283 1450 317 q 1392 201 1392 248 l 1392 201 m 1775 667 l 2359 667 l 2359 601 l 2176 601 l 2176 0 l 2093 0 l 2093 601 l 1842 601 l 1842 0 l 1759 0 l 1759 334 q 1686 534 1759 450 q 1510 617 1613 617 q 1333 530 1407 617 q 1259 317 1259 442 q 1284 197 1259 254 q 1359 100 1310 140 q 1334 155 1343 129 q 1325 201 1325 180 q 1375 331 1325 278 q 1492 384 1424 384 q 1609 330 1560 384 q 1659 201 1659 277 q 1600 47 1659 111 q 1459 -16 1542 -16 q 1271 81 1350 -16 q 1192 317 1192 179 q 1284 576 1192 469 q 1510 684 1377 684 q 1669 648 1598 684 q 1775 551 1740 612 l 1775 667 l 1775 667 z "},"க":{"ha":888,"x_min":46,"x_max":830,"o":"m 297 366 l 464 366 l 464 601 l 297 601 l 297 366 l 297 366 m 130 217 q 184 100 130 149 q 313 50 237 50 q 419 90 374 50 q 464 183 464 129 l 464 300 l 213 300 q 154 276 178 300 q 130 217 130 252 l 130 217 m 213 667 l 798 667 l 798 601 l 547 601 l 547 366 l 647 366 q 777 313 724 366 q 830 183 830 260 q 781 42 830 100 q 663 -16 732 -16 q 624 -12 644 -16 q 581 0 604 -8 l 597 66 q 629 54 612 58 q 663 50 646 50 q 723 90 699 50 q 747 183 747 129 q 718 266 747 232 q 647 300 689 300 l 547 300 l 547 183 q 478 42 547 100 q 313 -16 410 -16 q 125 52 203 -16 q 46 217 46 121 q 96 322 46 278 q 213 366 145 366 l 213 667 l 213 667 z "},"ங":{"ha":1217,"x_min":125,"x_max":1092,"o":"m 408 66 l 591 66 q 697 111 652 66 q 742 217 742 155 q 703 300 742 266 q 609 334 663 334 q 549 316 581 334 q 492 267 518 298 l 492 133 l 408 133 l 408 601 l 209 601 l 209 0 l 125 0 l 125 667 l 726 667 l 726 601 l 492 601 l 492 358 q 560 401 526 387 q 625 416 594 416 q 766 358 708 416 q 825 217 825 300 q 808 133 825 172 q 758 66 791 94 l 1009 66 l 1009 667 l 1092 667 l 1092 0 l 408 0 l 408 66 l 408 66 z "},"ச":{"ha":769,"x_min":46,"x_max":747,"o":"m 297 366 l 464 366 l 464 601 l 297 601 l 297 366 l 297 366 m 130 217 q 184 100 130 149 q 313 50 237 50 q 419 90 374 50 q 464 183 464 129 l 464 300 l 213 300 q 154 276 178 300 q 130 217 130 252 l 130 217 m 213 667 l 747 667 l 747 601 l 547 601 l 547 366 l 747 366 l 747 300 l 547 300 l 547 183 q 478 42 547 100 q 313 -16 410 -16 q 125 52 203 -16 q 46 217 46 121 q 96 322 46 278 q 213 366 145 366 l 213 667 l 213 667 z "},"ஜ":{"ha":1158,"x_min":71,"x_max":1086,"o":"m 137 334 q 171 262 137 292 q 254 233 205 233 q 325 262 296 233 q 354 334 354 292 q 325 405 354 376 q 254 434 296 434 q 171 405 205 434 q 137 334 137 376 l 137 334 m 595 533 q 682 642 620 601 q 821 684 743 684 q 1008 591 930 684 q 1086 366 1086 499 q 999 142 1086 235 q 787 50 911 50 l 320 50 q 203 -14 252 50 q 153 -167 153 -77 q 203 -332 153 -263 q 320 -400 252 -400 q 435 -355 377 -400 q 537 -233 492 -311 q 690 -62 601 -125 q 871 0 779 0 q 1012 -73 954 0 q 1070 -250 1070 -146 q 1021 -409 1070 -343 q 903 -475 972 -475 q 762 -404 821 -475 q 704 -233 704 -334 l 770 -233 q 819 -353 784 -305 q 895 -400 853 -400 q 960 -356 933 -400 q 987 -250 987 -312 q 953 -119 987 -172 q 871 -66 918 -66 q 730 -116 800 -66 q 612 -250 661 -165 q 475 -408 553 -350 q 320 -467 397 -467 q 144 -379 217 -467 q 71 -167 71 -292 q 144 33 71 -50 q 320 117 217 117 l 787 117 q 940 190 876 117 q 1004 366 1004 263 q 950 543 1004 469 q 821 617 897 617 q 690 564 743 617 q 637 434 637 510 l 637 183 l 553 183 l 553 434 q 495 564 553 511 q 354 617 437 617 q 221 576 281 617 q 137 467 161 536 q 195 492 165 483 q 254 500 225 500 q 371 451 321 500 q 420 334 420 401 q 371 216 420 266 q 254 167 321 167 q 121 230 171 167 q 71 400 71 293 q 154 600 71 517 q 354 684 237 684 q 490 644 426 684 q 595 533 555 604 l 595 533 z "},"ஞ":{"ha":1492,"x_min":99,"x_max":1432,"o":"m 515 183 q 549 89 515 127 q 632 50 583 50 q 715 90 681 50 q 749 183 749 129 q 715 278 749 239 q 632 317 681 317 q 549 278 583 317 q 515 183 515 239 l 515 183 m 99 267 q 131 492 99 389 q 224 667 163 595 l 282 625 q 202 470 231 562 q 174 267 174 378 q 366 -180 174 5 q 831 -366 559 -366 q 1196 -220 1044 -366 q 1348 133 1348 -73 q 1304 264 1348 210 q 1199 317 1260 317 q 1145 297 1172 317 q 1099 241 1119 277 l 1099 0 l 1016 0 l 1016 601 l 715 601 q 473 508 574 601 q 373 283 373 415 q 399 176 373 228 q 473 83 425 123 q 455 130 461 104 q 449 183 449 155 q 502 325 449 266 q 632 384 555 384 q 762 326 709 384 q 815 183 815 267 q 762 42 815 100 q 632 -16 708 -16 q 396 71 494 -16 q 298 283 298 159 q 420 555 298 442 q 715 667 543 667 l 1366 667 l 1366 601 l 1099 601 l 1099 334 q 1145 370 1119 357 q 1199 384 1171 384 q 1364 311 1295 384 q 1432 133 1432 237 q 1257 -268 1432 -102 q 831 -434 1081 -434 q 313 -229 528 -434 q 99 267 99 -23 l 99 267 z "},"ட":{"ha":1105,"x_min":125,"x_max":1092,"o":"m 125 0 l 125 667 l 209 667 l 209 66 l 1092 66 l 1092 0 l 125 0 l 125 0 z "},"ண":{"ha":1767,"x_min":73,"x_max":1758,"o":"m 256 183 q 286 89 256 127 q 357 50 315 50 q 428 90 399 50 q 457 183 457 129 q 428 278 457 239 q 357 317 399 317 q 286 278 315 317 q 256 183 256 239 l 256 183 m 656 267 q 681 114 656 178 q 741 50 705 50 q 800 113 776 50 q 823 267 823 176 q 802 386 823 328 q 741 492 780 444 q 678 386 700 444 q 656 267 656 328 l 656 267 m 1057 267 q 1081 114 1057 178 q 1141 50 1105 50 q 1200 113 1176 50 q 1223 267 1223 176 q 1202 392 1223 332 q 1141 500 1180 452 q 1078 392 1100 452 q 1057 267 1057 332 l 1057 267 m 73 283 q 195 566 73 449 q 490 684 317 684 q 633 665 568 684 q 741 609 697 646 q 836 665 784 646 q 940 684 887 684 q 1052 665 998 684 q 1149 609 1105 646 q 1227 652 1183 637 q 1324 667 1272 667 l 1758 667 l 1758 601 l 1557 601 l 1557 0 l 1474 0 l 1474 601 l 1324 601 q 1260 590 1294 601 q 1191 559 1226 579 q 1278 416 1248 492 q 1308 267 1308 340 q 1258 67 1308 151 q 1141 -16 1208 -16 q 1023 67 1073 -16 q 974 267 974 151 q 1002 439 974 362 q 1082 559 1031 515 q 1012 602 1048 587 q 940 617 975 617 q 867 600 905 617 q 791 551 829 582 q 877 430 846 505 q 907 267 907 355 q 858 67 907 151 q 741 -16 808 -16 q 623 67 673 -16 q 574 267 574 151 q 602 420 574 346 q 682 559 631 495 q 600 602 648 587 q 490 617 551 617 q 242 519 345 617 q 140 283 140 422 q 164 148 140 209 q 232 50 189 87 q 201 119 212 85 q 190 183 190 153 q 239 325 190 266 q 357 384 289 384 q 474 326 425 384 q 524 183 524 267 q 465 42 524 100 q 323 -16 407 -16 q 146 71 220 -16 q 73 283 73 159 l 73 283 z "},"த":{"ha":905,"x_min":30,"x_max":846,"o":"m 297 601 l 297 366 l 464 366 l 464 601 l 297 601 l 297 601 m 130 217 q 184 100 130 149 q 313 50 237 50 q 419 90 374 50 q 464 183 464 129 l 464 300 l 213 300 q 154 276 178 300 q 130 217 130 252 l 130 217 m 213 667 l 780 667 l 780 601 l 547 601 l 547 366 l 613 366 q 778 308 709 366 q 846 167 846 250 q 754 -69 846 28 q 530 -167 662 -167 l 213 -167 q 142 -201 171 -167 q 114 -283 114 -235 q 131 -348 114 -317 q 180 -400 148 -378 l 130 -458 q 57 -385 84 -431 q 30 -283 30 -339 q 83 -153 30 -206 q 213 -100 137 -100 l 530 -100 q 695 -22 627 -100 q 764 167 764 57 q 720 261 764 222 q 613 300 675 300 l 547 300 l 547 183 q 478 42 547 100 q 313 -16 410 -16 q 125 52 203 -16 q 46 217 46 121 q 96 322 46 278 q 213 366 145 366 l 213 667 l 213 667 z "},"ந":{"ha":891,"x_min":8,"x_max":825,"o":"m 125 667 l 726 667 l 726 601 l 475 601 l 475 384 q 526 432 490 414 q 609 450 562 450 q 762 367 699 450 q 825 167 825 283 q 732 -69 825 28 q 509 -167 640 -167 l 191 -167 q 121 -201 149 -167 q 92 -283 92 -235 q 114 -349 92 -313 q 175 -416 136 -384 l 117 -467 q 37 -375 65 -423 q 8 -283 8 -327 q 62 -153 8 -206 q 191 -100 115 -100 l 509 -100 q 673 -22 605 -100 q 742 167 742 57 q 703 308 742 250 q 609 366 663 366 q 517 337 556 366 q 475 267 479 308 l 475 0 l 392 0 l 392 601 l 209 601 l 209 0 l 125 0 l 125 667 l 125 667 z "},"ன":{"ha":1347,"x_min":71,"x_max":1337,"o":"m 254 183 q 288 89 254 127 q 370 50 321 50 q 453 90 419 50 q 487 183 487 129 q 453 278 487 239 q 370 317 419 317 q 288 278 321 317 q 254 183 254 239 l 254 183 m 704 267 q 728 114 704 178 q 787 50 751 50 q 846 113 822 50 q 871 267 871 176 q 849 392 871 332 q 787 500 827 452 q 725 392 746 452 q 704 267 704 332 l 704 267 m 987 667 l 1337 667 l 1337 601 l 1204 601 l 1204 0 l 1120 0 l 1120 601 l 987 601 q 905 588 944 601 q 837 551 865 575 q 923 430 892 505 q 954 267 954 355 q 905 67 954 151 q 787 -16 856 -16 q 669 67 719 -16 q 620 267 620 151 q 651 424 620 353 q 736 543 682 495 q 633 598 693 579 q 503 617 574 617 q 244 519 351 617 q 137 283 137 422 q 155 187 137 231 q 203 117 172 144 q 191 149 195 132 q 187 183 187 165 q 240 325 187 266 q 370 384 293 384 q 500 326 448 384 q 553 183 553 267 q 500 42 553 100 q 370 -16 446 -16 q 158 71 245 -16 q 71 283 71 159 q 197 566 71 449 q 503 684 323 684 q 665 662 591 684 q 787 601 739 640 q 877 650 825 632 q 987 667 929 667 l 987 667 z "},"ப":{"ha":1034,"x_min":125,"x_max":909,"o":"m 825 66 l 825 667 l 909 667 l 909 0 l 125 0 l 125 667 l 209 667 l 209 66 l 825 66 l 825 66 z "},"ம":{"ha":1118,"x_min":125,"x_max":1042,"o":"m 609 500 l 609 66 l 842 66 q 925 120 891 66 q 959 250 959 174 q 886 509 959 401 q 708 617 812 617 q 637 583 666 617 q 609 500 609 548 l 609 500 m 708 684 q 944 557 846 684 q 1042 250 1042 430 q 983 73 1042 146 q 842 0 925 0 l 125 0 l 125 667 l 209 667 l 209 66 l 525 66 l 525 500 q 578 631 525 578 q 708 684 632 684 l 708 684 z "},"ய":{"ha":1191,"x_min":117,"x_max":1067,"o":"m 983 66 l 983 667 l 1067 667 l 1067 0 l 416 0 l 416 42 q 358 -1 393 14 q 283 -16 323 -16 q 166 42 216 -16 q 117 183 117 100 l 117 667 l 201 667 l 201 183 q 224 89 201 127 q 283 50 248 50 q 378 94 339 50 q 416 201 416 138 l 416 667 l 500 667 l 500 66 l 983 66 l 983 66 z "},"ர":{"ha":718,"x_min":125,"x_max":708,"o":"m 125 667 l 708 667 l 708 601 l 525 601 l 525 0 q 389 -100 445 -28 q 317 -267 334 -172 l 241 -250 q 311 -79 258 -156 q 442 42 363 -3 l 442 601 l 209 601 l 209 0 l 125 0 l 125 667 l 125 667 z "},"ற":{"ha":945,"x_min":71,"x_max":853,"o":"m 121 500 q 174 631 121 578 q 304 684 227 684 q 389 661 350 684 q 445 601 427 639 q 509 661 464 639 q 612 684 553 684 q 783 576 712 684 q 853 317 853 468 q 751 -25 853 117 q 503 -167 648 -167 l 237 -167 q 160 -222 182 -167 q 170 -334 138 -278 l 103 -366 q 79 -312 87 -338 q 71 -267 71 -286 q 119 -150 71 -199 q 237 -100 168 -100 l 503 -100 q 692 22 613 -100 q 770 317 770 144 q 726 530 770 442 q 620 617 682 617 q 526 583 564 617 q 487 500 487 548 l 487 0 l 403 0 l 403 500 q 374 583 403 549 q 304 617 345 617 q 233 583 262 617 q 203 500 203 548 l 203 0 l 121 0 l 121 500 l 121 500 z "},"ல":{"ha":1153,"x_min":73,"x_max":1074,"o":"m 256 167 q 286 84 256 118 q 357 50 315 50 q 428 84 399 50 q 457 167 457 118 q 428 250 457 216 q 357 283 399 283 q 286 250 315 283 q 256 167 256 216 l 256 167 m 990 366 q 941 537 990 456 q 807 667 892 618 l 857 718 q 1016 566 958 659 q 1074 366 1074 472 q 991 96 1074 208 q 791 -16 907 -16 q 660 33 713 -16 q 606 151 606 81 l 606 483 q 562 578 606 538 q 457 617 518 617 q 233 524 326 617 q 140 300 140 431 q 157 166 140 222 q 206 83 175 110 q 194 119 198 92 q 190 183 190 145 q 239 300 190 251 q 357 350 289 350 q 474 296 425 350 q 524 167 524 243 q 474 37 524 90 q 357 -16 425 -16 q 157 76 240 -16 q 73 300 73 168 q 186 571 73 458 q 457 684 298 684 q 622 625 553 684 q 690 483 690 567 l 690 151 q 720 79 690 109 q 791 50 749 50 q 932 142 873 50 q 990 366 990 235 l 990 366 z "},"ள":{"ha":1253,"x_min":77,"x_max":1244,"o":"m 277 201 q 306 106 277 145 q 377 66 335 66 q 448 106 419 66 q 477 201 477 145 q 448 283 477 250 q 377 317 419 317 q 306 283 335 317 q 277 201 277 248 l 277 201 m 661 667 l 1244 667 l 1244 601 l 1061 601 l 1061 0 l 977 0 l 977 601 l 727 601 l 727 0 l 644 0 l 644 334 q 570 534 644 450 q 393 617 496 617 q 217 530 290 617 q 144 317 144 442 q 170 197 144 254 q 243 100 195 140 q 218 155 227 129 q 210 201 210 180 q 259 331 210 278 q 377 384 308 384 q 494 330 445 384 q 544 201 544 277 q 486 47 544 111 q 343 -16 427 -16 q 155 81 233 -16 q 77 317 77 179 q 170 576 77 469 q 393 684 262 684 q 553 648 481 684 q 661 551 625 612 l 661 667 l 661 667 z "},"ழ":{"ha":1118,"x_min":125,"x_max":1042,"o":"m 609 500 l 609 66 l 842 66 q 925 120 891 66 q 959 250 959 174 q 886 509 959 401 q 708 617 812 617 q 637 583 666 617 q 609 500 609 548 l 609 500 m 708 684 q 944 557 846 684 q 1042 250 1042 430 q 983 73 1042 146 q 842 0 925 0 l 609 0 q 661 -96 618 -58 q 758 -133 704 -133 l 959 -133 l 959 -201 l 825 -201 q 710 -232 764 -201 q 625 -317 656 -263 q 517 -427 585 -388 q 376 -467 450 -467 q 199 -408 273 -467 q 125 -267 125 -350 q 174 -150 125 -199 q 292 -100 224 -100 l 425 -100 l 425 -167 l 292 -167 q 233 -196 256 -167 q 209 -267 209 -225 q 258 -361 209 -323 q 376 -400 307 -400 q 463 -378 422 -400 q 525 -317 503 -355 q 583 -241 548 -275 q 659 -183 617 -206 q 562 -111 600 -161 q 525 0 525 -60 l 125 0 l 125 667 l 209 667 l 209 66 l 525 66 l 525 500 q 578 631 525 578 q 708 684 632 684 l 708 684 z "},"வ":{"ha":1329,"x_min":72,"x_max":1206,"o":"m 271 183 q 306 89 271 127 q 388 50 340 50 q 483 90 444 50 q 522 183 522 129 q 483 278 522 239 q 388 317 444 317 q 305 278 339 317 q 271 183 271 239 l 271 183 m 1122 66 l 1122 667 l 1206 667 l 1206 0 l 655 0 l 655 50 q 718 167 696 99 q 739 317 739 235 q 652 530 739 442 q 438 617 564 617 q 226 530 313 617 q 138 317 138 442 q 160 204 138 260 q 221 100 182 148 q 209 144 213 123 q 205 183 205 165 q 258 325 205 266 q 388 384 312 384 q 530 326 471 384 q 589 183 589 267 q 530 42 589 100 q 388 -16 472 -16 q 164 81 256 -16 q 72 317 72 179 q 179 576 72 469 q 438 684 286 684 q 709 576 597 684 q 822 317 822 468 q 805 187 822 251 q 755 66 788 123 l 1122 66 l 1122 66 z "},"ஶ":{"ha":1426,"x_min":126,"x_max":1301,"o":"m 937 601 l 937 174 q 1076 66 937 66 q 1214 174 1214 66 l 1214 601 l 937 601 m 490 667 l 1301 667 l 1301 174 q 1067 0 1301 0 q 850 174 850 0 l 850 601 l 575 601 l 575 210 q 311 0 575 0 q 126 170 127 0 l 126 667 l 213 667 l 213 187 q 328 66 213 66 q 490 206 490 65 l 490 667 z "},"ஷ":{"ha":1554,"x_min":75,"x_max":1476,"o":"m 275 183 q 304 89 275 127 q 376 50 334 50 q 458 90 425 50 q 492 183 492 129 q 458 266 492 232 q 376 300 423 300 q 304 266 334 300 q 275 183 275 232 l 275 183 m 975 467 q 1025 349 975 399 q 1142 300 1074 300 q 1168 302 1156 300 q 1192 308 1180 305 l 1192 500 q 1163 559 1192 536 q 1092 583 1134 583 q 1009 549 1043 583 q 975 467 975 515 l 975 467 m 1275 66 l 1392 66 l 1392 326 q 1339 278 1369 297 q 1275 250 1309 259 l 1275 66 l 1275 66 m 1092 667 q 1222 618 1169 667 q 1275 500 1275 568 l 1275 334 q 1354 371 1320 350 q 1409 416 1389 392 l 1476 416 l 1476 0 l 1275 0 l 1275 -400 l 1192 -400 l 1192 0 l 625 0 l 625 50 q 687 172 666 99 q 708 334 708 245 q 625 534 708 450 q 425 617 543 617 q 224 524 308 617 q 141 300 141 431 q 163 186 141 239 q 225 100 184 133 q 213 144 217 123 q 209 183 209 165 q 260 313 209 260 q 384 366 312 366 q 507 313 456 366 q 559 183 559 260 q 500 42 559 100 q 358 -16 442 -16 q 158 76 241 -16 q 75 300 75 168 q 178 571 75 458 q 425 684 281 684 q 684 581 576 684 q 792 334 792 479 q 775 191 792 259 q 726 66 758 123 l 1192 66 l 1192 233 q 1171 233 1187 232 q 1142 233 1156 233 q 966 302 1039 233 q 892 467 892 370 q 951 608 892 549 q 1092 667 1009 667 l 1092 667 z "},"ஸ":{"ha":1492,"x_min":75,"x_max":1409,"o":"m 292 183 q 321 89 292 127 q 392 50 350 50 q 463 90 434 50 q 492 183 492 129 q 463 278 492 239 q 392 317 434 317 q 321 278 350 317 q 292 183 292 239 l 292 183 m 75 300 q 172 571 75 458 q 408 684 270 684 q 574 648 500 684 q 684 551 648 612 q 743 646 699 609 q 842 684 787 684 q 960 630 910 684 q 1009 500 1009 576 l 1009 183 q 1043 89 1009 127 q 1126 50 1077 50 q 1267 134 1208 50 q 1325 334 1325 217 q 1280 520 1325 435 q 1158 650 1236 605 l 1217 718 q 1357 563 1305 666 q 1409 334 1409 460 q 1326 86 1409 189 q 1126 -16 1242 -16 q 984 42 1043 -16 q 925 183 925 100 l 925 500 q 901 577 925 545 q 842 609 878 609 q 771 567 800 609 q 742 467 742 525 l 742 0 l 659 0 l 659 416 q 585 553 659 496 q 408 609 511 609 q 220 519 298 609 q 141 300 141 429 q 168 168 141 227 q 241 83 195 110 q 229 132 233 106 q 225 183 225 157 q 274 325 225 266 q 392 384 323 384 q 509 326 460 384 q 559 183 559 267 q 505 42 559 100 q 376 -16 452 -16 q 163 76 251 -16 q 75 300 75 168 l 75 300 z "},"ஹ":{"ha":1702,"x_min":79,"x_max":1613,"o":"m 278 183 q 313 89 278 127 q 395 50 347 50 q 477 90 444 50 q 511 183 511 129 q 477 278 511 239 q 395 317 444 317 q 312 278 346 317 q 278 183 278 239 l 278 183 m 1195 617 q 1265 666 1222 648 q 1362 684 1309 684 q 1539 581 1465 684 q 1613 334 1613 479 q 1505 -20 1613 127 q 1245 -167 1397 -167 l 278 -167 q 208 -196 236 -167 q 179 -267 179 -225 q 187 -301 179 -281 q 212 -350 195 -321 l 145 -400 q 108 -337 121 -372 q 95 -267 95 -302 q 149 -150 95 -199 q 278 -100 202 -100 l 1245 -100 q 1445 26 1362 -100 q 1529 334 1529 153 q 1480 534 1529 450 q 1362 617 1431 617 q 1267 588 1306 617 q 1229 517 1229 559 l 1229 0 l 1146 0 l 1146 517 q 1122 588 1146 559 q 1062 617 1097 617 q 1003 588 1027 617 q 979 517 979 559 l 979 0 l 612 0 l 612 50 q 674 159 652 99 q 696 283 696 218 q 623 526 696 435 q 429 617 551 617 q 229 526 304 617 q 153 283 153 435 q 178 173 153 225 q 245 83 202 121 q 220 137 229 111 q 212 183 212 163 q 265 325 212 266 q 395 384 319 384 q 526 326 472 384 q 579 183 579 267 q 515 42 579 100 q 362 -16 452 -16 q 162 71 245 -16 q 79 283 79 159 q 174 574 79 465 q 429 684 270 684 q 683 574 587 684 q 779 283 779 465 q 762 178 779 233 q 712 66 745 123 l 895 66 l 895 517 q 945 634 895 585 q 1062 684 994 684 q 1134 666 1099 684 q 1195 617 1169 648 l 1195 617 z "},"ா":{"ha":726,"x_min":125,"x_max":718,"o":"m 125 667 l 718 667 l 718 601 l 525 601 l 525 0 l 442 0 l 442 601 l 209 601 l 209 0 l 125 0 l 125 667 l 125 667 z "},"ி":{"ha":899,"x_min":125,"x_max":776,"o":"m 125 817 q 222 1017 125 933 q 458 1100 320 1100 q 683 1022 590 1100 q 776 834 776 944 l 776 0 l 692 0 l 692 834 q 623 975 692 917 q 458 1034 555 1034 q 282 970 355 1034 q 209 817 209 907 q 226 743 209 781 q 275 667 243 705 l 175 667 q 138 748 151 711 q 125 817 125 785 l 125 817 z "},"ீ":{"ha":750,"x_min":125,"x_max":625,"o":"m 125 917 q 203 1082 125 1013 q 392 1150 282 1150 q 557 1097 488 1150 q 625 967 625 1044 q 576 850 625 899 q 458 800 526 800 q 341 850 391 800 q 292 967 292 899 q 309 1035 292 1004 q 358 1084 327 1066 q 251 1024 293 1072 q 209 917 209 977 q 258 783 209 850 q 392 667 307 715 l 275 667 q 165 775 205 708 q 125 917 125 842 l 125 917 m 376 967 q 399 896 376 925 q 458 867 423 867 q 518 896 494 867 q 543 967 543 925 q 518 1038 543 1009 q 458 1067 494 1067 q 399 1038 423 1067 q 376 967 376 1009 l 376 967 z "},"ு":{"ha":722,"x_min":-282,"x_max":669,"o":"m -282 601 l -282 667 l 452 667 q 605 604 541 667 q 669 450 669 540 q 606 297 669 361 q 452 233 543 233 q 298 297 362 233 q 235 450 235 361 l 235 601 l -282 601 l -282 601 m 319 450 q 358 345 319 389 q 452 300 397 300 q 546 344 507 300 q 585 450 585 388 q 546 556 585 511 q 452 601 507 601 l 319 601 l 319 450 l 319 450 z "},"ூ":{"ha":1053,"x_min":-282,"x_max":1002,"o":"m -282 667 l 168 667 l 168 734 q 286 1017 168 899 q 568 1134 403 1134 q 876 982 749 1134 q 1002 617 1002 830 q 842 228 1002 389 q 452 66 681 66 q 236 110 336 66 q 68 233 136 153 l 118 283 q 248 173 159 213 q 452 133 336 133 q 782 275 646 133 q 918 617 918 416 q 816 936 918 804 q 568 1067 713 1067 q 345 970 437 1067 q 252 734 252 872 l 252 667 l 468 667 q 599 618 545 667 q 652 500 652 568 q 599 383 652 433 q 468 334 545 334 q 279 410 361 334 q 176 601 197 486 l -282 601 l -282 667 l -282 667 m 260 601 q 334 457 275 514 q 468 400 393 400 q 539 429 510 400 q 568 500 568 458 q 539 572 568 543 q 468 601 510 601 l 260 601 l 260 601 z "},"ெ":{"ha":1081,"x_min":73,"x_max":958,"o":"m 441 209 q 479 97 441 144 q 574 50 518 50 q 668 97 629 50 q 707 209 707 144 q 667 320 707 274 q 574 366 628 366 q 479 320 518 366 q 441 209 441 274 l 441 209 m 73 517 q 225 929 73 758 q 590 1100 377 1100 q 850 998 742 1100 q 958 750 958 895 l 958 0 l 873 0 l 873 750 q 790 950 873 867 q 590 1034 707 1034 q 277 882 407 1034 q 148 517 148 730 q 224 220 148 345 q 415 75 300 95 q 378 140 391 103 q 365 217 365 176 q 426 370 365 307 q 574 434 487 434 q 722 370 661 434 q 783 217 783 307 q 719 43 783 102 q 532 -16 655 -16 q 208 140 342 -16 q 73 517 73 296 l 73 517 z "},"ே":{"ha":986,"x_min":68,"x_max":936,"o":"m 68 551 q 215 928 68 772 q 568 1084 362 1084 q 828 1010 720 1084 q 936 834 936 937 q 882 703 936 757 q 751 650 829 650 q 621 703 674 650 q 568 834 568 757 q 605 945 568 894 q 703 1017 642 996 q 646 1029 680 1025 q 568 1034 612 1034 q 273 892 395 1034 q 152 551 152 750 q 273 197 152 345 q 568 50 395 50 q 645 54 612 50 q 703 66 678 58 q 606 139 643 88 q 568 250 568 190 q 622 380 568 327 q 751 434 675 434 q 882 380 829 434 q 936 250 936 327 q 828 62 936 140 q 568 -16 720 -16 q 215 149 362 -16 q 68 551 68 315 l 68 551 m 635 834 q 669 751 635 785 q 751 718 704 718 q 834 751 800 718 q 868 834 868 785 q 834 928 868 890 q 751 967 800 967 q 669 928 703 967 q 635 834 635 888 l 635 834 m 635 250 q 669 155 635 194 q 751 117 704 117 q 834 156 800 117 q 868 250 868 195 q 834 332 868 298 q 751 366 800 366 q 669 332 703 366 q 635 250 635 298 l 635 250 z "},"ை":{"ha":1314,"x_min":72,"x_max":1238,"o":"m 255 183 q 284 89 255 127 q 355 50 313 50 q 438 90 404 50 q 472 183 472 129 q 443 266 472 232 q 372 300 414 300 q 289 266 323 300 q 255 183 255 232 l 255 183 m 681 267 q 703 114 681 178 q 755 50 724 50 q 808 113 787 50 q 830 267 830 176 q 811 385 830 328 q 755 483 792 441 q 700 365 719 419 q 681 267 681 311 l 681 267 m 72 267 q 193 562 72 441 q 488 684 315 684 q 633 658 567 684 q 739 583 699 632 q 836 658 780 632 q 955 684 892 684 q 1155 581 1072 684 q 1238 334 1238 479 q 1190 149 1238 240 q 1055 -16 1142 57 l 1005 50 q 1116 166 1076 91 q 1156 334 1156 241 q 1097 534 1156 450 q 955 617 1039 617 q 879 595 921 617 q 788 533 837 574 q 875 417 844 487 q 906 267 906 347 q 861 67 906 151 q 755 -16 817 -16 q 650 67 694 -16 q 605 267 605 151 q 631 407 605 339 q 705 533 656 475 q 601 595 656 574 q 488 617 545 617 q 241 515 343 617 q 138 267 138 412 q 160 177 138 221 q 221 100 182 133 q 203 142 209 122 q 197 183 197 163 q 248 313 197 260 q 372 366 300 366 q 489 313 439 366 q 538 183 538 260 q 485 42 538 100 q 355 -16 431 -16 q 155 67 239 -16 q 72 267 72 151 l 72 267 z "},"ொ":{"ha":1742,"x_min":73,"x_max":1732,"o":"m 441 209 q 479 97 441 144 q 574 50 518 50 q 668 97 629 50 q 707 209 707 144 q 667 320 707 274 q 574 366 628 366 q 479 320 518 366 q 441 209 441 274 l 441 209 m 73 517 q 225 929 73 758 q 590 1100 377 1100 q 850 998 742 1100 q 958 750 958 895 l 958 0 l 873 0 l 873 750 q 790 950 873 867 q 590 1034 707 1034 q 277 882 407 1034 q 148 517 148 730 q 224 220 148 345 q 415 75 300 95 q 378 140 391 103 q 365 217 365 176 q 426 370 365 307 q 574 434 487 434 q 722 370 661 434 q 783 217 783 307 q 719 43 783 102 q 532 -16 655 -16 q 208 140 342 -16 q 73 517 73 296 l 73 517 m 1141 667 l 1732 667 l 1732 601 l 1541 601 l 1541 0 l 1457 0 l 1457 601 l 1223 601 l 1223 0 l 1141 0 l 1141 667 l 1141 667 z "},"ோ":{"ha":1653,"x_min":68,"x_max":1644,"o":"m 68 551 q 215 928 68 772 q 568 1084 362 1084 q 828 1010 720 1084 q 936 834 936 937 q 882 703 936 757 q 751 650 829 650 q 621 703 674 650 q 568 834 568 757 q 605 945 568 894 q 703 1017 642 996 q 646 1029 680 1025 q 568 1034 612 1034 q 273 892 395 1034 q 152 551 152 750 q 273 197 152 345 q 568 50 395 50 q 645 54 612 50 q 703 66 678 58 q 606 139 643 88 q 568 250 568 190 q 622 380 568 327 q 751 434 675 434 q 882 380 829 434 q 936 250 936 327 q 828 62 936 140 q 568 -16 720 -16 q 215 149 362 -16 q 68 551 68 315 l 68 551 m 635 834 q 669 751 635 785 q 751 718 704 718 q 834 751 800 718 q 868 834 868 785 q 834 928 868 890 q 751 967 800 967 q 669 928 703 967 q 635 834 635 888 l 635 834 m 635 250 q 669 155 635 194 q 751 117 704 117 q 834 156 800 117 q 868 250 868 195 q 834 332 868 298 q 751 366 800 366 q 669 332 703 366 q 635 250 635 298 l 635 250 m 1053 667 l 1644 667 l 1644 601 l 1453 601 l 1453 0 l 1369 0 l 1369 601 l 1135 601 l 1135 0 l 1053 0 l 1053 667 l 1053 667 z "},"ௌ":{"ha":2275,"x_min":73,"x_max":2266,"o":"m 441 209 q 479 97 441 144 q 574 50 518 50 q 668 97 629 50 q 707 209 707 144 q 667 320 707 274 q 574 366 628 366 q 479 320 518 366 q 441 209 441 274 l 441 209 m 73 517 q 225 929 73 758 q 590 1100 377 1100 q 850 998 742 1100 q 958 750 958 895 l 958 0 l 873 0 l 873 750 q 790 950 873 867 q 590 1034 707 1034 q 277 882 407 1034 q 148 517 148 730 q 224 220 148 345 q 415 75 300 95 q 378 140 391 103 q 365 217 365 176 q 426 370 365 307 q 574 434 487 434 q 722 370 661 434 q 783 217 783 307 q 719 43 783 102 q 532 -16 655 -16 q 208 140 342 -16 q 73 517 73 296 l 73 517 m 1299 201 q 1329 106 1299 145 q 1398 66 1358 66 q 1470 106 1440 66 q 1499 201 1499 145 q 1470 283 1499 250 q 1398 317 1440 317 q 1328 283 1356 317 q 1299 201 1299 248 l 1299 201 m 1682 667 l 2266 667 l 2266 601 l 2082 601 l 2082 0 l 1999 0 l 1999 601 l 1750 601 l 1750 0 l 1666 0 l 1666 334 q 1592 534 1666 450 q 1416 617 1519 617 q 1239 530 1313 617 q 1165 317 1165 442 q 1191 197 1165 254 q 1265 100 1217 140 q 1240 155 1249 129 q 1232 201 1232 180 q 1281 331 1232 278 q 1398 384 1331 384 q 1516 330 1466 384 q 1565 201 1565 277 q 1507 47 1565 111 q 1366 -16 1449 -16 q 1171 81 1252 -16 q 1090 317 1090 179 q 1185 576 1090 469 q 1416 684 1280 684 q 1576 648 1504 684 q 1682 551 1648 612 l 1682 667 l 1682 667 z "},"்":{"ha":170,"x_min":-412,"x_max":-245,"o":"m -412 933 q -388 993 -412 968 q -328 1017 -363 1017 q -269 993 -293 1017 q -245 933 -245 968 q -269 874 -245 898 q -328 850 -293 850 q -388 875 -363 850 q -412 933 -412 899 l -412 933 z "},"ௐ":{"ha":1388,"x_min":43,"x_max":1103,"o":"m 483 -8 q 480 -21 483 -15 q 473 -31 477 -27 q 463 -38 469 -35 q 450 -41 457 -41 q 438 -38 444 -41 q 428 -31 433 -35 q 420 -19 423 -26 q 418 -5 418 -12 q 420 7 418 1 q 428 19 423 14 q 439 27 433 24 q 450 30 445 30 q 463 27 457 30 q 473 20 469 24 q 480 8 477 15 q 483 -5 483 1 l 483 -8 m 500 -222 q 503 -136 533 -174 q 443 -132 472 -102 q 438 -221 414 -163 l 500 -222 m 362 -393 q 632 -218 547 -403 q 751 -66 673 -104 q 631 20 677 -39 q 585 151 585 80 q 663 315 585 247 q 852 384 742 384 q 803 302 821 346 q 785 217 785 259 q 819 146 785 175 q 902 117 853 117 q 985 156 951 117 q 1019 250 1019 195 q 887 521 1019 408 q 568 633 755 633 q 262 531 388 633 q 136 283 136 429 q 140 231 136 256 q 152 183 144 206 q 201 319 152 263 q 319 376 250 376 q 436 323 387 376 q 486 201 486 271 q 436 70 486 123 q 319 16 387 16 q 142 95 216 16 q 68 283 68 174 q 215 578 68 457 q 568 700 362 700 q 946 568 789 700 q 1103 250 1103 437 q 1044 109 1103 167 q 902 50 986 50 q 772 99 825 50 q 719 217 719 148 q 730 256 719 231 q 761 317 741 282 q 682 243 711 289 q 652 151 652 198 q 720 20 652 73 q 886 -34 788 -34 l 1069 -34 l 1069 -100 l 823 -100 q 750 -140 796 -100 q 699 -221 720 -165 q 365 -446 609 -456 q 43 -212 50 -434 q 75 -94 41 -146 q 167 -45 106 -45 q 228 -72 203 -45 q 259 -224 259 -111 q 382 -224 324 -225 q 411 -96 368 -137 q 522 -90 458 -53 q 562 -194 570 -117 q 536 -270 556 -254 l 201 -270 q 183 -118 221 -156 q 119 -119 149 -83 q 99 -236 92 -151 q 362 -393 110 -380 m 235 201 q 259 117 235 152 q 319 83 283 83 q 378 117 354 83 q 401 201 401 152 q 378 271 401 243 q 319 300 354 300 q 259 271 283 300 q 235 201 235 243 z "},"ௗ":{"ha":1253,"x_min":77,"x_max":1244,"o":"m 277 201 q 306 106 277 145 q 377 66 335 66 q 448 106 419 66 q 477 201 477 145 q 448 283 477 250 q 377 317 419 317 q 306 283 335 317 q 277 201 277 248 l 277 201 m 661 667 l 1244 667 l 1244 601 l 1061 601 l 1061 0 l 977 0 l 977 601 l 727 601 l 727 0 l 644 0 l 644 334 q 570 534 644 450 q 393 617 496 617 q 217 530 290 617 q 144 317 144 442 q 170 197 144 254 q 243 100 195 140 q 218 155 227 129 q 210 201 210 180 q 259 331 210 278 q 377 384 308 384 q 494 330 445 384 q 544 201 544 277 q 486 47 544 111 q 343 -16 427 -16 q 155 81 233 -16 q 77 317 77 179 q 170 576 77 469 q 393 684 262 684 q 553 648 481 684 q 661 551 625 612 l 661 667 l 661 667 z "},"௦":{"ha":793,"x_min":81,"x_max":712,"o":"m 81 438 q 167 739 81 610 q 397 867 252 867 q 627 739 543 867 q 712 438 712 610 q 628 131 712 262 q 397 0 544 0 q 166 131 251 0 q 81 438 81 262 l 81 438 m 170 438 q 227 193 170 297 q 397 88 285 88 q 567 193 509 88 q 625 438 625 297 q 566 677 625 575 q 397 779 507 779 q 229 677 288 779 q 170 438 170 575 l 170 438 z "},"௧":{"ha":949,"x_min":83,"x_max":867,"o":"m 334 366 l 500 366 l 500 601 l 334 601 l 334 366 l 334 366 m 167 217 q 220 100 167 149 q 350 50 274 50 q 456 90 411 50 q 500 183 500 129 l 500 300 l 250 300 q 191 276 214 300 q 167 217 167 252 l 167 217 m 250 667 l 766 667 l 766 601 l 583 601 l 583 366 l 684 366 q 814 313 761 366 q 867 183 867 260 q 818 42 867 100 q 700 -16 769 -16 q 661 -12 681 -16 q 617 0 640 -8 l 633 66 q 665 54 648 58 q 700 50 682 50 q 760 90 735 50 q 784 183 784 129 q 755 266 784 232 q 684 300 726 300 l 583 300 l 583 183 q 515 42 583 100 q 350 -16 446 -16 q 161 52 240 -16 q 83 217 83 121 q 132 322 83 278 q 250 366 182 366 l 250 667 l 250 667 z "},"௨":{"ha":983,"x_min":83,"x_max":901,"o":"m 151 467 q 174 408 151 431 q 233 384 198 384 q 293 408 269 384 q 317 467 317 431 q 293 538 317 509 q 233 567 269 567 q 174 538 198 567 q 151 467 151 509 l 151 467 m 83 483 q 166 625 83 566 q 366 684 250 684 q 602 605 505 684 q 700 416 700 526 q 616 240 700 313 q 416 167 533 167 l 233 167 q 186 152 205 167 q 167 117 167 137 q 186 81 167 96 q 233 66 205 66 l 901 66 l 901 0 l 233 0 q 127 34 172 0 q 83 117 83 68 q 127 199 83 165 q 233 233 172 233 l 416 233 q 558 287 499 233 q 617 416 617 340 q 544 558 617 499 q 366 617 471 617 l 267 617 q 352 557 320 598 q 384 467 384 515 q 340 361 384 406 q 233 317 296 317 q 127 366 172 317 q 83 483 83 415 l 83 483 z "},"௩":{"ha":1058,"x_min":83,"x_max":975,"o":"m 83 0 l 83 667 l 684 667 l 684 601 l 450 601 l 450 358 q 505 395 473 381 q 567 408 536 408 q 720 353 656 408 q 784 217 784 297 q 766 133 784 172 q 718 66 749 94 l 975 66 l 975 0 l 366 0 l 366 66 l 551 66 q 656 111 612 66 q 700 217 700 155 q 661 300 700 266 q 567 334 623 334 q 508 316 538 334 q 450 267 477 298 l 450 133 l 366 133 l 366 601 l 167 601 l 167 0 l 83 0 l 83 0 z "},"௪":{"ha":899,"x_min":83,"x_max":817,"o":"m 334 366 l 500 366 l 500 601 l 334 601 l 334 366 l 334 366 m 167 217 q 220 100 167 149 q 350 50 274 50 q 456 90 411 50 q 500 183 500 129 l 500 300 l 250 300 q 191 276 214 300 q 167 217 167 252 l 167 217 m 250 667 l 784 667 l 784 601 l 583 601 l 583 366 l 734 366 l 734 450 l 817 450 l 817 300 l 583 300 l 583 183 q 515 42 583 100 q 350 -16 446 -16 q 161 52 240 -16 q 83 217 83 121 q 132 322 83 278 q 250 366 182 366 l 250 667 l 250 667 z "},"௫":{"ha":1217,"x_min":83,"x_max":1134,"o":"m 601 -300 q 919 -163 788 -300 q 1050 167 1050 -27 q 1004 297 1050 244 q 892 350 958 350 q 839 332 868 350 q 784 283 810 315 l 784 0 l 700 0 l 700 601 l 500 601 l 500 0 l 416 0 l 416 667 l 917 667 l 917 601 l 784 601 l 784 366 q 829 403 798 389 q 901 416 860 416 q 1065 343 997 416 q 1134 167 1134 270 q 978 -210 1134 -54 q 601 -366 822 -366 q 235 -174 388 -366 q 83 292 83 19 q 249 793 83 585 q 650 1001 415 1001 q 981 874 844 1001 q 1118 567 1118 747 l 1034 567 q 921 826 1034 719 q 650 933 808 933 q 302 745 446 933 q 159 292 159 557 q 288 -127 159 46 q 601 -300 416 -300 l 601 -300 z "},"௬":{"ha":1124,"x_min":83,"x_max":1042,"o":"m 334 601 l 334 366 l 500 366 l 500 601 l 334 601 l 334 601 m 167 217 q 220 100 167 149 q 350 50 274 50 q 456 90 411 50 q 500 183 500 129 l 500 300 l 250 300 q 191 276 214 300 q 167 217 167 252 l 167 217 m 83 217 q 132 322 83 278 q 250 366 182 366 l 250 667 l 817 667 l 817 601 l 583 601 l 583 366 l 1042 366 l 1042 300 l 951 300 l 951 0 l 867 0 l 867 300 l 766 300 l 766 0 l 684 0 l 684 300 l 583 300 l 583 183 q 515 42 583 100 q 350 -16 446 -16 q 161 52 240 -16 q 83 217 83 121 l 83 217 z "},"௭":{"ha":1042,"x_min":83,"x_max":959,"o":"m 300 183 q 329 89 300 127 q 400 50 358 50 q 471 90 442 50 q 500 183 500 129 q 471 266 500 232 q 400 300 442 300 q 329 266 358 300 q 300 183 300 232 l 300 183 m 766 601 l 434 601 q 234 513 317 601 q 151 300 151 425 q 186 164 151 227 q 283 66 221 102 q 246 125 259 95 q 233 183 233 155 q 283 313 233 260 q 400 366 332 366 q 530 313 477 366 q 583 183 583 260 q 520 42 583 100 q 366 -16 457 -16 q 166 76 250 -16 q 83 300 83 168 q 186 559 83 452 q 434 667 289 667 l 959 667 l 959 601 l 850 601 l 850 0 l 766 0 l 766 601 l 766 601 z "},"௮":{"ha":1383,"x_min":83,"x_max":1301,"o":"m 1217 -83 l 1217 183 l 1050 183 q 870 -35 1000 47 q 575 -117 741 -117 q 361 -83 461 -117 q 183 16 260 -49 q 109 96 134 57 q 83 167 83 136 q 112 226 83 202 q 183 250 141 250 l 458 252 q 386 316 414 269 q 358 425 358 363 q 458 608 358 532 q 700 684 559 684 q 971 586 859 684 q 1084 350 1084 488 q 1080 298 1084 323 q 1067 250 1076 274 l 1217 250 l 1217 667 l 1301 667 l 1301 -83 l 1217 -83 l 1217 -83 m 434 425 q 490 301 434 353 q 625 250 545 250 q 755 299 703 250 q 808 416 808 349 q 755 547 808 494 q 625 601 703 601 q 490 549 545 601 q 434 425 434 496 l 434 425 m 967 183 l 201 183 q 177 173 187 183 q 167 151 167 163 q 175 130 167 142 q 201 100 183 117 q 368 -11 273 28 q 567 -50 464 -50 q 819 14 708 -50 q 967 183 929 79 l 967 183 m 800 250 l 983 250 q 996 298 991 273 q 1001 350 1001 323 q 932 535 1001 454 q 758 633 864 616 q 850 534 817 591 q 884 416 884 477 q 863 321 884 365 q 800 250 841 277 l 800 250 z "},"௯":{"ha":1283,"x_min":83,"x_max":1200,"o":"m 334 366 l 500 366 l 500 601 l 334 601 l 334 366 l 334 366 m 167 217 q 220 111 167 156 q 350 66 274 66 q 456 101 411 66 q 500 183 500 136 l 500 300 l 250 300 q 191 276 214 300 q 167 217 167 252 l 167 217 m 750 167 q 769 84 750 118 q 817 50 788 50 q 865 84 845 50 q 884 167 884 118 q 857 247 884 210 q 784 300 829 283 q 759 237 768 271 q 750 167 750 203 l 750 167 m 83 217 q 132 322 83 278 q 250 366 182 366 l 250 667 l 742 667 l 742 601 l 583 601 l 583 366 l 750 366 q 839 439 784 412 q 959 467 894 467 q 1130 398 1059 467 q 1200 233 1200 330 q 1179 109 1200 168 q 1118 0 1157 49 l 1025 0 q 1094 113 1070 53 q 1118 233 1118 174 q 1071 351 1118 301 q 959 400 1024 400 q 880 387 916 400 q 825 350 845 373 q 916 279 882 330 q 951 167 951 228 q 911 37 951 90 q 817 -16 872 -16 q 722 37 761 -16 q 684 167 684 90 q 692 237 684 203 q 718 300 700 271 l 583 300 l 583 183 q 515 42 583 100 q 350 -16 446 -16 q 161 52 240 -16 q 83 217 83 121 l 83 217 z "},"௰":{"ha":897,"x_min":88,"x_max":822,"o":"m 422 66 q 349 5 388 26 q 271 -16 311 -16 q 141 37 194 -16 q 88 167 88 90 l 88 500 l 172 500 l 172 167 q 201 84 172 118 q 271 50 231 50 q 342 84 313 50 q 372 167 372 118 l 372 500 l 456 500 l 456 167 q 511 82 475 114 q 589 50 547 50 q 694 119 650 50 q 739 283 739 187 q 661 508 739 415 q 472 601 582 601 l 255 601 l 255 667 l 472 667 q 720 555 617 667 q 822 283 822 442 q 753 71 822 159 q 589 -16 685 -16 q 486 6 530 -16 q 422 66 441 28 l 422 66 z "},"௱":{"ha":928,"x_min":121,"x_max":921,"o":"m 453 601 q 517 661 472 639 q 620 684 562 684 l 921 684 l 921 609 l 787 609 l 787 0 l 704 0 l 704 609 l 620 609 q 541 578 578 609 q 487 500 505 548 l 487 0 l 403 0 l 403 500 q 374 583 403 549 q 304 617 345 617 q 233 583 262 617 q 203 500 203 548 l 203 0 l 121 0 l 121 500 q 174 631 121 578 q 304 684 227 684 q 381 662 342 684 q 453 601 420 640 l 453 601 z "},"௲":{"ha":1029,"x_min":14,"x_max":997,"o":"m 297 601 l 297 366 l 464 366 l 464 601 l 297 601 l 297 601 m 130 217 q 184 100 130 149 q 313 50 237 50 q 419 90 374 50 q 464 183 464 129 l 464 300 l 213 300 q 154 276 178 300 q 130 217 130 252 l 130 217 m 46 217 q 96 322 46 278 q 213 366 145 366 l 213 667 l 780 667 l 780 601 l 547 601 l 547 366 l 880 366 l 880 300 l 697 300 l 697 183 q 748 220 718 206 q 814 233 779 233 q 944 170 891 233 q 997 16 997 107 q 905 -149 997 -80 q 681 -217 812 -217 l 213 -217 q 119 -266 157 -217 q 80 -384 80 -315 l 14 -384 q 72 -219 14 -288 q 213 -151 130 -151 l 681 -151 q 846 -101 777 -151 q 914 16 914 -52 q 885 122 914 77 q 814 167 856 167 q 741 141 773 167 q 697 75 708 115 l 697 0 l 613 0 l 613 300 l 547 300 l 547 183 q 478 42 547 100 q 313 -16 410 -16 q 125 52 203 -16 q 46 217 46 121 l 46 217 z "},"௳":{"ha":1234,"x_min":72,"x_max":1222,"o":"m 271 183 q 306 89 271 127 q 388 50 340 50 q 483 90 444 50 q 522 183 522 129 q 483 278 522 239 q 388 317 444 317 q 305 278 339 317 q 271 183 271 239 l 271 183 m 72 317 q 179 576 72 469 q 438 684 286 684 q 709 576 597 684 q 822 317 822 468 q 805 187 822 251 q 755 66 788 123 l 1222 66 l 1222 0 l 655 0 l 655 50 q 718 167 696 99 q 739 317 739 235 q 652 530 739 442 q 438 617 564 617 q 226 530 313 617 q 138 317 138 442 q 160 204 138 260 q 221 100 182 148 q 209 144 213 123 q 205 183 205 165 q 258 325 205 266 q 388 384 312 384 q 530 326 471 384 q 589 183 589 267 q 530 42 589 100 q 388 -16 472 -16 q 164 81 256 -16 q 72 317 72 179 l 72 317 z "},"௴":{"ha":1440,"x_min":125,"x_max":1440,"o":"m 609 500 l 609 66 l 842 66 q 925 120 891 66 q 959 250 959 174 q 886 509 959 401 q 708 617 812 617 q 637 583 666 617 q 609 500 609 548 l 609 500 m 692 684 q 607 768 639 715 q 575 884 575 822 q 648 1049 575 981 q 825 1118 722 1118 q 883 1114 859 1118 q 924 1105 907 1111 q 1016 1149 968 1134 q 1107 1164 1063 1164 q 1203 1141 1158 1164 q 1274 1081 1248 1119 q 1350 1143 1305 1122 q 1440 1164 1394 1164 l 1440 1097 q 1381 1080 1411 1097 q 1332 1031 1352 1062 q 1364 977 1354 1002 q 1375 933 1375 952 q 1348 860 1375 890 q 1280 830 1321 830 q 1211 860 1240 830 q 1183 933 1183 890 q 1196 983 1183 956 q 1232 1034 1208 1009 q 1175 1080 1207 1063 q 1107 1097 1142 1097 q 1042 1089 1073 1097 q 987 1063 1012 1081 q 1056 994 1031 1034 q 1081 917 1081 955 q 1031 811 1081 856 q 909 766 981 766 q 814 806 853 766 q 776 901 776 845 q 798 987 776 947 q 859 1050 821 1028 l 825 1050 q 699 1001 751 1050 q 647 884 647 952 q 694 773 647 831 q 825 667 742 715 q 983 517 924 632 q 1042 250 1042 401 q 983 73 1042 146 q 842 0 925 0 l 125 0 l 125 667 l 209 667 l 209 66 l 525 66 l 525 500 q 574 631 525 578 q 692 684 624 684 l 692 684 m 842 901 q 861 853 842 872 q 909 834 880 834 q 980 858 951 834 q 1009 917 1009 882 q 989 980 1009 951 q 933 1025 968 1009 q 867 972 891 1005 q 842 901 842 939 l 842 901 m 1251 933 q 1259 910 1251 920 q 1280 901 1268 901 q 1301 911 1293 901 q 1309 933 1309 921 q 1301 960 1309 947 q 1280 983 1294 974 q 1259 960 1267 974 q 1251 933 1251 947 l 1251 933 z "},"௵":{"ha":2441,"x_min":88,"x_max":2395,"o":"m 524 183 q 556 89 524 127 q 633 50 589 50 q 711 90 678 50 q 743 183 743 129 q 711 278 743 239 q 633 317 678 317 q 556 278 589 317 q 524 183 524 239 l 524 183 m 1260 66 l 1260 667 l 1766 667 l 1766 601 l 1594 601 l 1594 326 q 1643 356 1617 346 q 1695 366 1670 366 q 1815 298 1766 366 q 1864 133 1864 231 q 1604 -268 1864 -102 q 975 -434 1344 -434 q 349 -229 609 -434 q 88 267 88 -23 q 376 786 88 571 q 1074 1001 665 1001 q 1771 854 1482 1001 q 2059 500 2059 707 l 2059 250 q 2094 119 2059 172 q 2180 66 2129 66 q 2285 145 2241 66 q 2329 334 2329 224 q 2290 522 2329 444 q 2195 601 2252 601 l 2220 667 q 2344 570 2292 667 q 2395 334 2395 472 q 2332 98 2395 195 q 2180 0 2269 0 q 2038 73 2097 0 q 1979 250 1979 146 l 1979 500 q 1713 807 1979 681 q 1070 933 1447 933 q 427 739 693 933 q 161 267 161 544 q 399 -180 161 5 q 972 -366 637 -366 q 1546 -220 1309 -366 q 1784 133 1784 -73 q 1756 245 1784 198 q 1691 292 1729 292 q 1622 262 1651 292 q 1594 191 1594 233 l 1594 0 l 1514 0 l 1514 601 l 1343 601 l 1343 0 l 906 0 l 906 50 q 960 165 941 96 q 979 317 979 235 q 895 530 979 442 q 690 617 810 617 q 488 530 572 617 q 403 317 403 442 q 420 200 403 256 q 472 100 438 144 q 461 144 465 123 q 457 183 457 165 q 506 325 457 266 q 625 384 555 384 q 756 326 703 384 q 810 183 810 267 q 756 42 810 100 q 625 -16 703 -16 q 404 75 487 -16 q 320 317 320 165 q 429 576 320 469 q 690 684 537 684 q 952 576 844 684 q 1061 317 1061 468 q 1046 187 1061 251 q 1002 66 1031 123 l 1260 66 l 1260 66 z "},"௶":{"ha":1073,"x_min":107,"x_max":948,"o":"m 115 183 l 115 667 l 198 667 l 198 183 q 233 89 198 127 q 315 50 267 50 q 420 94 376 50 q 465 201 465 138 l 465 667 l 548 667 l 548 -83 l 865 -83 l 865 667 l 948 667 l 948 -151 l 548 -151 l 548 -250 q 502 -367 548 -317 q 391 -416 456 -416 l 274 -416 q 157 -368 206 -416 q 107 -250 107 -319 q 156 -132 107 -182 q 274 -83 205 -83 l 465 -83 l 465 50 q 406 1 446 19 q 315 -16 366 -16 q 174 42 232 -16 q 115 183 115 100 l 115 183 m 190 -250 q 214 -321 190 -292 q 274 -350 239 -350 l 391 -350 q 444 -321 422 -350 q 465 -250 465 -292 l 465 -151 l 274 -151 q 214 -180 239 -151 q 190 -250 190 -209 l 190 -250 z "},"௷":{"ha":1812,"x_min":73,"x_max":1803,"o":"m 290 183 q 319 89 290 127 q 391 50 349 50 q 461 90 433 50 q 490 183 490 129 q 460 266 490 232 q 391 300 431 300 q 319 266 349 300 q 290 183 290 232 l 290 183 m 73 300 q 176 559 73 452 q 423 667 278 667 l 1006 667 l 1006 601 l 841 601 l 841 197 q 899 252 865 227 q 972 296 932 277 q 1067 442 994 385 q 1232 499 1141 499 q 1429 420 1347 499 q 1511 232 1511 342 q 1499 135 1511 182 q 1463 49 1488 88 l 1803 49 l 1803 0 l 1389 0 l 1389 37 q 1433 122 1417 72 q 1449 232 1449 172 q 1385 386 1449 321 q 1232 450 1322 450 q 1113 414 1166 450 q 1032 315 1059 377 q 1085 325 1059 321 q 1135 328 1111 328 q 1282 276 1221 328 q 1343 151 1343 224 q 1292 36 1343 84 q 1169 -12 1241 -12 q 1024 60 1084 -12 q 964 232 964 132 q 888 173 921 208 q 841 96 856 138 l 841 0 l 757 0 l 757 601 l 423 601 q 223 513 307 601 q 140 300 140 425 q 176 164 140 227 q 274 66 212 102 q 237 125 250 95 q 224 183 224 155 q 273 313 224 260 q 391 366 321 366 q 521 313 468 366 q 574 183 574 260 q 510 42 574 100 q 357 -16 446 -16 q 157 76 240 -16 q 73 300 73 168 l 73 300 m 1016 254 q 1061 106 1016 167 q 1169 45 1105 45 q 1244 76 1214 45 q 1275 151 1275 107 q 1234 238 1275 202 q 1135 274 1194 274 q 1075 269 1105 274 q 1016 254 1044 263 l 1016 254 z "},"௸":{"ha":2163,"x_min":83,"x_max":2151,"o":"m 83 416 q 230 770 83 623 q 583 917 377 917 q 867 816 736 917 q 1059 551 998 715 q 1109 563 1082 559 q 1168 567 1135 567 q 1344 488 1271 567 q 1417 300 1417 410 q 1396 161 1417 221 q 1333 66 1374 100 l 1651 66 q 1554 154 1590 95 q 1518 283 1518 213 q 1576 414 1518 361 q 1717 467 1634 467 q 1859 414 1800 467 q 1918 283 1918 361 l 1918 66 l 2151 66 l 2151 0 l 1918 0 l 1918 -400 l 1834 -400 l 1834 0 l 1184 0 l 1184 50 q 1293 143 1252 75 q 1333 300 1333 212 q 1280 441 1333 382 q 1150 500 1227 500 q 1105 498 1123 500 q 1076 492 1086 495 q 1081 462 1078 480 q 1084 416 1084 444 q 1021 121 1084 243 q 867 0 958 0 q 784 50 818 0 q 750 167 750 99 q 812 390 750 292 q 975 525 873 488 q 814 761 922 671 q 583 850 707 850 q 283 724 407 850 q 159 416 159 597 q 178 294 159 358 q 233 167 197 231 q 280 319 225 254 q 416 384 335 384 q 558 326 499 384 q 617 183 617 267 q 559 42 617 100 q 416 -16 500 -16 q 180 111 278 -16 q 83 416 83 237 l 83 416 m 300 183 q 334 89 300 127 q 416 50 369 50 q 499 90 465 50 q 533 183 533 129 q 496 278 533 239 q 408 317 460 317 q 332 278 363 317 q 300 183 300 239 l 300 183 m 834 167 q 844 96 834 125 q 867 66 853 66 q 955 169 918 66 q 991 416 991 271 l 991 467 q 877 357 920 439 q 834 167 834 275 l 834 167 m 1600 283 q 1669 130 1600 194 q 1834 66 1737 66 l 1834 283 q 1800 366 1834 332 q 1717 400 1766 400 q 1634 366 1668 400 q 1600 283 1600 332 l 1600 283 z "},"௹":{"ha":1670,"x_min":103,"x_max":1671,"o":"m 620 -300 q 939 -163 807 -300 q 1070 167 1070 -27 q 1023 297 1070 244 q 911 350 977 350 q 859 332 887 350 q 804 283 830 315 l 804 0 l 720 0 l 720 601 l 521 601 l 521 0 l 437 0 l 437 667 l 937 667 l 937 601 l 804 601 l 804 366 q 849 403 818 389 q 921 416 880 416 q 1086 343 1017 416 q 1154 167 1154 270 q 998 -210 1154 -54 q 620 -366 842 -366 q 255 -174 407 -366 q 103 292 103 19 q 269 793 103 585 q 670 1001 435 1001 q 954 909 825 1001 q 1137 667 1082 817 q 1215 764 1160 727 q 1337 800 1271 800 q 1478 751 1420 800 q 1537 633 1537 703 l 1671 633 l 1671 567 l 1470 567 q 1431 684 1470 635 q 1337 734 1392 734 q 1220 675 1270 734 q 1171 533 1171 617 l 1086 533 q 965 816 1086 699 q 670 933 844 933 q 323 745 467 933 q 179 292 179 557 q 308 -127 179 46 q 620 -300 437 -300 l 620 -300 z "},"௺":{"ha":1622,"x_min":125,"x_max":1609,"o":"m 933 467 q 958 408 933 431 q 1017 384 982 384 q 1070 408 1048 384 q 1092 467 1092 431 q 1088 550 1092 515 q 1076 609 1084 585 q 972 553 1012 593 q 933 467 933 514 l 933 467 m 125 0 l 125 667 l 525 667 q 494 721 505 686 q 483 800 483 755 q 564 936 483 880 q 758 991 646 991 q 986 905 883 991 q 1126 682 1089 819 l 1150 684 q 1381 605 1286 684 q 1476 416 1476 526 q 1413 223 1476 316 q 1242 66 1351 130 l 1609 66 l 1609 0 l 967 0 q 1282 186 1162 72 q 1401 416 1401 300 q 1327 558 1401 499 q 1150 617 1253 617 q 1165 558 1160 595 q 1171 467 1171 521 q 1126 361 1171 406 q 1017 317 1081 317 q 905 361 952 317 q 859 467 859 406 q 913 599 859 541 q 1050 671 967 656 q 939 854 1020 783 q 758 925 857 925 q 617 888 675 925 q 559 800 559 852 q 572 722 559 757 q 609 667 585 686 l 726 667 l 726 601 l 492 601 l 492 358 q 543 395 513 381 q 609 408 574 408 q 762 353 699 408 q 825 217 825 297 q 757 64 825 127 q 591 0 689 0 l 408 0 l 408 66 l 591 66 q 697 111 652 66 q 742 217 742 155 q 703 300 742 266 q 609 334 663 334 q 549 316 581 334 q 492 267 518 298 l 492 133 l 408 133 l 408 601 l 209 601 l 209 0 l 125 0 l 125 0 z "},"‌":{"ha":0,"x_min":0,"x_max":68,"o":"m 1 -492 l 0 1168 l 66 1168 l 68 -492 l 1 -492 l 1 -492 z "},"‍":{"ha":0,"x_min":-267,"x_max":363,"o":"m 0 -492 l 0 1100 l -267 1100 l -267 1168 l 363 1168 l 363 1100 l 66 1100 l 66 -492 l 0 -492 l 0 -492 z "},"–":{"ha":833,"x_min":0,"x_max":750,"o":"m 0 334 l 0 400 l 750 400 l 750 334 l 0 334 l 0 334 z "},"—":{"ha":1667,"x_min":0,"x_max":1667,"o":"m 0 334 l 0 400 l 1667 400 l 1667 334 l 0 334 l 0 334 z "},"‘":{"ha":391,"x_min":125,"x_max":267,"o":"m 125 700 q 157 828 125 770 q 241 917 189 886 l 267 875 q 212 817 232 854 q 191 734 191 779 q 239 715 220 734 q 259 667 259 696 q 241 620 259 639 q 201 601 224 601 q 147 630 170 601 q 125 700 125 659 l 125 700 z "},"’":{"ha":382,"x_min":125,"x_max":259,"o":"m 125 834 q 144 882 125 863 q 191 901 163 901 q 239 866 220 901 q 259 784 259 831 q 227 682 259 731 q 141 601 195 632 l 125 633 q 174 688 156 652 q 191 766 191 724 q 144 786 163 766 q 125 834 125 806 l 125 834 z "},"“":{"ha":616,"x_min":125,"x_max":492,"o":"m 125 700 q 157 828 125 770 q 241 917 189 886 l 267 875 q 212 817 232 854 q 191 734 191 779 q 239 715 220 734 q 259 667 259 696 q 241 620 259 639 q 201 601 224 601 q 147 630 170 601 q 125 700 125 659 l 125 700 m 350 700 q 382 828 350 770 q 467 917 414 886 l 492 875 q 437 817 457 854 q 416 734 416 779 q 464 715 445 734 q 483 667 483 696 q 466 620 483 639 q 425 601 449 601 q 372 630 393 601 q 350 700 350 659 l 350 700 z "},"”":{"ha":591,"x_min":125,"x_max":467,"o":"m 125 834 q 144 882 125 863 q 191 901 163 901 q 239 866 220 901 q 259 784 259 831 q 227 682 259 731 q 141 601 195 632 l 125 633 q 174 688 156 652 q 191 766 191 724 q 144 786 163 766 q 125 834 125 806 l 125 834 m 334 834 q 353 882 334 863 q 400 901 372 901 q 448 866 429 901 q 467 784 467 831 q 435 682 467 731 q 350 601 403 632 l 334 633 q 382 688 365 652 q 400 766 400 724 q 353 786 372 766 q 334 834 334 806 l 334 834 z "},"…":{"ha":1321,"x_min":125,"x_max":1198,"o":"m 281 83 l 281 0 l 125 0 l 125 83 l 281 83 l 281 83 m 739 83 l 739 0 l 583 0 l 583 83 l 739 83 l 739 83 m 1198 83 l 1198 0 l 1042 0 l 1042 83 l 1198 83 l 1198 83 z "},"₹":{"ha":846,"x_min":80,"x_max":791,"o":"m 486 678 q 487 697 487 690 l 80 697 l 115 783 l 469 783 q 449 812 461 799 q 224 887 380 887 l 80 887 l 115 972 l 791 972 l 755 887 l 498 887 q 570 783 551 856 l 791 783 l 755 697 l 582 697 q 232 461 582 487 l 688 0 l 552 0 l 95 457 l 95 537 q 486 678 469 534 z "},"−":{"ha":666,"x_min":125,"x_max":543,"o":"m 125 334 l 125 400 l 543 400 l 543 334 l 125 334 l 125 334 z "},"◌":{"ha":1059,"x_min":125,"x_max":936,"o":"m 477 689 q 493 726 477 711 q 530 742 509 742 q 569 726 553 742 q 585 689 585 711 q 569 650 585 666 q 530 633 553 633 q 493 649 509 633 q 477 689 477 665 l 477 689 m 477 -15 q 493 24 477 8 q 530 41 509 41 q 569 24 553 41 q 585 -15 585 8 q 569 -52 585 -37 q 530 -68 553 -68 q 493 -52 509 -68 q 477 -15 477 -37 l 477 -15 m 125 336 q 141 374 125 358 q 180 391 157 391 q 218 374 202 391 q 233 336 233 358 q 218 299 233 315 q 180 283 202 283 q 141 299 157 283 q 125 336 125 315 l 125 336 m 827 336 q 843 374 827 358 q 882 391 859 391 q 920 374 903 391 q 936 336 936 358 q 920 299 936 315 q 882 283 903 283 q 843 299 859 283 q 827 336 827 315 l 827 336 m 172 161 q 188 199 172 183 q 227 216 203 216 q 264 199 248 216 q 281 161 281 183 q 264 123 281 138 q 227 107 248 107 q 188 123 203 107 q 172 161 172 138 l 172 161 m 780 511 q 796 551 780 534 q 834 567 812 567 q 871 551 856 567 q 887 511 887 536 q 871 474 887 490 q 834 458 856 458 q 796 474 812 458 q 780 511 780 490 l 780 511 m 652 642 q 668 680 652 663 q 707 696 684 696 q 745 680 728 696 q 761 642 761 663 q 745 603 761 618 q 707 587 728 587 q 668 603 684 587 q 652 642 652 618 l 652 642 m 302 31 q 318 71 302 54 q 355 88 334 88 q 393 72 377 88 q 408 31 408 56 q 393 -6 408 9 q 355 -22 377 -22 q 318 -6 334 -22 q 302 31 302 9 l 302 31 m 172 511 q 188 551 172 534 q 227 567 203 567 q 264 551 248 567 q 281 511 281 536 q 264 474 281 490 q 227 458 248 458 q 188 474 203 458 q 172 511 172 490 l 172 511 m 780 161 q 796 199 780 183 q 834 216 812 216 q 871 199 856 216 q 887 161 887 183 q 871 123 887 138 q 834 107 856 107 q 796 123 812 107 q 780 161 780 138 l 780 161 m 302 642 q 318 680 302 663 q 355 696 334 696 q 393 680 377 696 q 408 642 408 663 q 393 603 408 618 q 355 587 377 587 q 318 603 334 587 q 302 642 302 618 l 302 642 m 652 31 q 668 71 652 54 q 707 88 684 88 q 745 72 728 88 q 761 31 761 56 q 745 -6 761 9 q 707 -22 728 -22 q 668 -6 684 -22 q 652 31 652 9 l 652 31 z "}}}
